<?xml version="1.0" encoding="utf-8"?>
<!-- Generator: Adobe Illustrator 23.0.6, SVG Export Plug-In . SVG Version: 6.00 Build 0)  -->
<svg version="1.1" xmlns="http://www.w3.org/2000/svg" xmlns:xlink="http://www.w3.org/1999/xlink" x="0px" y="0px"
	 viewBox="0 0 1000 300" style="enable-background:new 0 0 1000 300;" xml:space="preserve">
<style type="text/css">
	.st0{fill:#FFFFFF;}
	.st1{fill:#FF6B6B;}
	.st2{opacity:0.9981;}
	.st3{fill:none;stroke:#FF6B6B;stroke-width:3.25;stroke-linecap:round;stroke-linejoin:round;}
	.st4{fill:none;stroke:#FF6B6B;stroke-width:3.25;stroke-linecap:round;stroke-linejoin:round;stroke-dasharray:4.0107,7.0187;}
	.st5{fill:none;stroke:#FF6B6B;stroke-width:3.25;stroke-linecap:round;stroke-linejoin:round;stroke-dasharray:4.0161,7.0282;}
	.st6{fill:none;stroke:#FF6B6B;stroke-width:3.25;stroke-linecap:round;stroke-linejoin:round;stroke-dasharray:3.9832,6.9707;}
	.st7{fill:none;stroke:#FF6B6B;stroke-width:3.25;stroke-linecap:round;stroke-linejoin:round;stroke-dasharray:3.9905,6.9833;}
	.st8{fill:none;stroke:#FF6B6B;stroke-width:3.25;stroke-linecap:round;stroke-linejoin:round;stroke-dasharray:3.9786,6.9626;}
	.st9{fill:none;stroke:#FF6B6B;stroke-width:3.25;stroke-linecap:round;stroke-linejoin:round;stroke-dasharray:4.0154,7.0269;}
	.st10{fill:none;stroke:#FF6B6B;stroke-width:3.25;stroke-linecap:round;stroke-linejoin:round;stroke-dasharray:3.9914,6.9849;}
	.st11{fill:none;stroke:#FF6B6B;stroke-width:3.25;stroke-linecap:round;stroke-linejoin:round;stroke-dasharray:3.9992,6.9987;}
	.st12{fill:none;stroke:#FF6B6B;stroke-width:3.25;stroke-linecap:round;stroke-linejoin:round;stroke-dasharray:4.0241,7.0422;}
	.st13{fill:none;stroke:#FF6B6B;stroke-width:3.25;stroke-linecap:round;stroke-linejoin:round;stroke-dasharray:4,7;}
	.st14{fill:none;stroke:#FF6B6B;stroke-width:3.25;stroke-linecap:round;stroke-linejoin:round;stroke-dasharray:4.0084,7.0147;}
	.st15{fill:none;stroke:#FF6B6B;stroke-width:2.25;stroke-linecap:round;stroke-linejoin:round;}
	.st16{fill:none;stroke:#FF6B6B;stroke-width:2.25;stroke-linecap:round;stroke-linejoin:round;stroke-dasharray:2.9884,4.9807;}
	.st17{fill:none;stroke:#FF6B6B;stroke-width:2.25;stroke-linecap:round;stroke-linejoin:round;stroke-dasharray:3.0196,5.0326;}
	.st18{fill:none;stroke:#FF6B6B;stroke-width:2.25;stroke-linecap:round;stroke-linejoin:round;stroke-dasharray:3.002,5.0034;}
	.st19{fill:none;stroke:#FF6B6B;stroke-width:2.25;stroke-linecap:round;stroke-linejoin:round;stroke-dasharray:2.8893,4.8156;}
	.st20{fill:none;stroke:#FF6B6B;stroke-width:2.25;stroke-linecap:round;stroke-linejoin:round;stroke-dasharray:2.976,4.96;}
	.st21{fill:none;stroke:#FF6B6B;stroke-width:2.25;stroke-linecap:round;stroke-linejoin:round;stroke-dasharray:3.0584,5.0973;}
	.st22{fill:none;stroke:#FF6B6B;stroke-width:3.25;stroke-linecap:round;stroke-linejoin:round;stroke-dasharray:4.021,7.0368;}
	.st23{fill:none;stroke:#FF6B6B;stroke-width:3.25;stroke-linecap:round;stroke-linejoin:round;stroke-dasharray:4.0022,7.0039;}
	.st24{fill:none;stroke:#FF6B6B;stroke-width:3.25;stroke-linecap:round;stroke-linejoin:round;stroke-dasharray:4.0027,7.0047;}
	.st25{fill:none;stroke:#FF6B6B;stroke-width:3.25;stroke-linecap:round;stroke-linejoin:round;stroke-dasharray:3.9839,6.9719;}
	.st26{fill:none;stroke:#FF6B6B;stroke-width:3.25;stroke-linecap:round;stroke-linejoin:round;stroke-dasharray:3.9968,6.9945;}
	.st27{fill:none;stroke:#FF6B6B;stroke-width:3.25;stroke-linecap:round;stroke-linejoin:round;stroke-dasharray:4.0041,7.0072;}
	.st28{fill:none;stroke:#FF6B6B;stroke-width:3.25;stroke-linecap:round;stroke-linejoin:round;stroke-dasharray:3.9799,6.9649;}
	.st29{fill:none;stroke:#FF6B6B;stroke-width:3.25;stroke-linecap:round;stroke-linejoin:round;stroke-dasharray:3.987,6.9772;}
	.st30{fill:none;stroke:#FF6B6B;stroke-width:3.25;stroke-linecap:round;stroke-linejoin:round;stroke-dasharray:4.0409,7.0716;}
	.st31{fill:none;stroke:#FF6B6B;stroke-width:3.25;stroke-linecap:round;stroke-linejoin:round;stroke-dasharray:3.873,6.7778;}
	.st32{fill:none;stroke:#FF6B6B;stroke-width:3.25;stroke-linecap:round;stroke-linejoin:round;stroke-dasharray:3.9238,6.8666;}
	.st33{fill:none;stroke:#FF6B6B;stroke-width:3.25;stroke-linecap:round;stroke-linejoin:round;stroke-dasharray:3.9766,6.9591;}
	.st34{fill:none;stroke:#FF6B6B;stroke-width:3.25;stroke-linecap:round;stroke-linejoin:round;stroke-dasharray:3.9872,6.9776;}
	.st35{fill:none;stroke:#FF6B6B;stroke-width:3.25;stroke-linecap:round;stroke-linejoin:round;stroke-dasharray:3.9957,6.9925;}
	.st36{fill:none;stroke:#FF6B6B;stroke-width:3.25;stroke-linecap:round;stroke-linejoin:round;stroke-dasharray:4.0043,7.0076;}
	.st37{fill:none;stroke:#FF6B6B;stroke-width:2.25;stroke-linecap:round;stroke-linejoin:round;stroke-miterlimit:10;}
	.st38{fill:none;stroke:#FF6B6B;stroke-width:2.75;stroke-linecap:round;stroke-linejoin:round;stroke-miterlimit:10;}
	.st39{fill:none;stroke:#FF6B6B;stroke-width:3.5;stroke-linecap:round;stroke-linejoin:round;stroke-miterlimit:10;}
	.st40{fill:none;stroke:#FF6B6B;stroke-width:3;stroke-linecap:round;stroke-linejoin:round;stroke-miterlimit:10;}
	.st41{fill:none;stroke:#FF6B6B;stroke-width:3.25;stroke-linecap:round;stroke-linejoin:round;stroke-miterlimit:10;}
</style>
<g id="FILL-BACKGROUND">
	<rect class="st0" width="1000" height="300"/>
</g>
<g id="N-TEXT">
</g>
<g id="AG-DIAGRAM">
	<g id="POLYLINE_2921_">
		<g>
			<g>
				<line class="st3" x1="53.3" y1="250.74" x2="55.3" y2="250.74"/>
				<line class="st12" x1="62.34" y1="250.74" x2="955.18" y2="250.74"/>
				<line class="st3" x1="958.7" y1="250.74" x2="960.7" y2="250.74"/>
			</g>
		</g>
	</g>
</g>
<g id="AG-PEOPLE">
	<g id="POLYLINE_2812_">
		<path class="st37" d="M726.98,225.16c1.12-2.1,2.5-3.82,4.39-5.27c2.2-1.7,4.64-3.07,7.04-4.46c5.68-3.3,11.45-6.47,17.02-9.96
			c5.2-3.26,10.19-6.82,14.8-10.88c4.06-3.57,8.23-7.5,10.95-12.24c1.71-2.97,3.68-7.1,1.52-10.33c-0.28-0.42-0.6-0.81-0.92-1.2"/>
	</g>
	<g id="POLYLINE_2811_">
		<path class="st37" d="M706.52,223.84c2.06-2.32,4.24-4.51,6.54-6.6"/>
	</g>
	<g id="POLYLINE_2810_">
		<path class="st37" d="M711.76,250.74c-0.18-2.73,0-5.62,0.25-8.34c0.08-0.84,0.25-1.89,1.27-1.98c0.86-0.07,1.6,0.57,2.11,1.19
			c2.2,2.66,2.99,6.76,6.4,8.31c1.7,0.78,3.71,0.75,5.54,0.81c3.08,0.1,6.16,0.09,9.24,0c3.02-0.09,6.07-0.21,9.06-0.65
			c1.67-0.24,3.96-0.44,4.53-2.32c0.49-1.61,0.79-3.45-1.23-3.97c-2.42-0.62-4.98-0.36-7.4-1.05c-5.65-1.62-8.76-6.4-11.14-11.43
			c-0.75-1.58-1.47-3.19-2.22-4.77c-0.41-0.88-0.66-1.44-1.72-1.36c-1.32,0.1-2.63,0.43-3.95,0.6c-1.55,0.2-3.11,0.35-4.67,0.41
			c-2.53,0.1-5.13,0.03-7.55-0.83c-1.17-0.41-2.25-1.13-3.45-1.44c-0.94-0.24-1.48,0.3-1.93,1.08c-1.16,1.98-1.8,4.52-1.97,6.8
			c-0.13,1.84,0.34,3.14,1.29,4.67c1.16,1.87,1.51,4.23,1.89,6.36c0.24,1.34,0.44,2.69,0.58,4.04c0.07,0.68,0.12,1.35,0.16,2.03
			c0.02,0.33-0.12,1.67,0.08,1.85c0.09,0.09,0.73,0,0.84,0c0.55,0,1.1,0,1.65,0C710.21,250.74,710.98,250.74,711.76,250.74z"/>
	</g>
	<g id="POLYLINE_2809_">
		<path class="st37" d="M683.83,187.75c-0.47,2.53-0.79,5-0.58,7.57c0.21,2.56,0.74,5.11,1.48,7.57c1.29,4.34,3.29,8.63,6.51,11.88
			c3.87,3.9,9.31,6.09,14.8,5.14c5.36-0.93,9.97-4.24,13.72-8.03c1.62-1.65,3.19-3.63,5.15-4.9c1.67-1.08,2.84-0.31,4.58,0.08
			c1.33,0.3,2.7,0.06,4-0.3c2.46-0.69,4.8-1.85,7.06-3.03c4.98-2.59,9.78-5.53,14.45-8.63c4.68-3.11,9.29-6.38,13.53-10.06
			c1.99-1.72,3.93-3.54,5.57-5.6c1.36-1.7,2.07-3.63,3.18-5.47c1.17-1.93,3.34-2.93,5.48-3.43c0.57-0.13,1.14-0.22,1.72-0.27"/>
	</g>
	<g id="POLYLINE_2808_">
		<path class="st37" d="M717.88,101.91c1.29-2.34,2.57-3.86,4.84-5.25c2.53-1.56,4.56-3.03,6.01-5.67c1.95-3.54,3.2-7.49,4.82-11.19
			c1.51-3.44,2.92-7.24,5.25-10.23c1.53-1.96,3.58-3.17,5.94-3.9c1.72-0.53,3.43-0.63,5.2-0.9c1.32-0.2,2.41-0.88,3.56-1.5
			c3.17-1.69,6.47-2,9.02,0.87c0.94,1.05,1.72,2.18,2.95,2.89c1.09,0.63,1.96,1.18,2.44,2.4c0.94,2.39,0.94,5.35,0.42,7.83
			c-0.13,0.64-0.31,1.27-0.52,1.89"/>
	</g>
	<g id="POLYLINE_2807_">
		<path class="st37" d="M773.18,115.09c0.26-1.62,0.48-3.23,0.22-4.87c-0.32-2.03-1.15-3.95-1.74-5.92c-1.28-4.31-1.05-8.92-2-13.32
			c-0.55-2.57-1.26-5.09-2.02-7.61"/>
	</g>
	<g id="POLYLINE_1055_">
		<path class="st37" d="M777.78,157.79c0.3-4.78,0.28-9.59,0.04-14.38c-0.23-4.57-1.18-8.87-2.1-13.34
			c-0.44-2.14-0.69-4.29-0.86-6.47c-0.16-2.06-0.19-4.21-0.76-6.21c-0.53-1.87-1.58-3.54-2.42-5.27c-0.98-2.01-1.86-4.13-3.08-6.01
			c-1.31-2.01-3.81-2.87-6.14-2.99c-0.16-0.01-0.32-0.01-0.47-0.01"/>
	</g>
	<g id="POLYLINE_1054_">
		<path class="st37" d="M763.33,137.36c1.32,1.59,2.28,3.48,2.76,5.49"/>
	</g>
	<g id="POLYLINE_1053_">
		<path class="st37" d="M757.39,115.7c0.2,4.29-0.05,8.53-0.53,12.79c-0.49,4.37-1.27,8.63-2.41,12.87
			c-0.13,0.48-0.5,1.38-0.31,1.87c0.28,0.76,1.25-0.08,1.62-0.38c1.32-1.07,2.27-2.48,3.35-3.77c0.43-0.51,1.05-1.28,1.2-0.23
			c0.05,0.35-0.07,1.48,0.36,1.67c0.81,0.35,2.15-2.15,2.41-2.64c1.32-2.53,1.37-5.45,2.94-7.88c0.29-0.45,0.6-0.89,0.91-1.33"/>
	</g>
	<g id="POLYLINE_1052_">
		<path class="st37" d="M748.79,142.19c1.55-4.42,4.23-8.33,7.8-11.37"/>
	</g>
	<g id="POLYLINE_1051_">
		<path class="st37" d="M751.03,106.77c-1.97,0.24-4.31,1.55-4.08,3.85c0.09,0.88,0.56,1.26,1.35,1.55c1.21,0.46,2.42,0.93,3.62,1.4
			c2.44,0.97,4.88,1.94,7.36,2.8c2.7,0.93,5.5,1.34,6.63,4.29c0.64,1.66,0.8,3.48,0.92,5.24c0.16,2.48,0.13,4.97,0.04,7.46
			c-0.19,4.9-0.65,9.8-1.67,14.61c-0.14,0.67-0.3,1.34-0.44,2.02"/>
	</g>
	<g id="POLYLINE_1050_">
		<path class="st37" d="M742.38,135.22c0.96-1.86,1.86-3.73,2.27-5.79c0.39-1.99,0.37-4.05,0.3-6.07c-0.07-1.97-0.4-3.99-0.3-5.97
			c0.06-1.25,0.76-2.3,1.55-3.22c0.65-0.76,1.41-1.46,2.3-1.93"/>
	</g>
	<g id="POLYLINE_1049_">
		<path class="st37" d="M737.36,128.02c0.08-0.75,0.19-1.72,0.59-2.37c0.7-1.15,1.45,0.93,1.68,1.5c0.18,0.45,0.94,3.29,1.79,2.48
			c0.57-0.54,0.78-1.85,0.93-2.54c0.74-3.23,0.31-6.46,0.61-9.72c0.24-2.55,1.18-4.98,0.96-7.58c-0.26-3.06-1.35-5.99-2-8.96
			c-0.65-2.95-0.91-5.95-0.79-8.97c0.18-4.48,0.76-10.13,4.59-13.08c1.63-1.25,3.16-2.03,4.18-3.86c0.86-1.54,1.69-2.81,3.37-3.46
			c1.63-0.64,3.49-0.72,5.21-0.47c0.79,0.12,1.57,0.31,2.28,0.69c0.71,0.38,1.29,0.83,2.07,1.06c1.89,0.57,3.54,0.95,4.32,2.96
			c0.78,2.04,0.77,4.45,0.59,6.6c-0.13,1.57-0.49,3.1-0.74,4.66c-0.21,1.33-0.18,2.65-0.16,3.99c0.04,2.26-0.14,4.4-1.01,6.49
			c-1.7,4.08-5.23,7.83-9.5,9.23c-3.61,1.19-7.21-0.18-10.07-2.5c-1.03-0.84-1.97-1.8-2.73-2.89"/>
	</g>
	<g id="POLYLINE_1048_">
		<path class="st37" d="M727.8,172.78c0.84-1.23,1.68-2.43,2.21-3.83c0.69-1.85,1.01-3.83,1.48-5.74c0.29-1.18,0.6-2.75,1.78-3.36
			c1.37-0.71,3.11-0.83,4.58-1.22c1.24-0.32,2.24-0.79,3.34-1.44"/>
	</g>
	<g id="POLYLINE_1047_">
		<path class="st37" d="M713.45,179.17c-2.78,0.61-5.53,1.16-8.39,1.11c-2.6-0.05-5.22-0.38-7.81,0c-2.7,0.39-5.21,1.55-7.43,3.09
			c-1.23,0.85-2.39,1.81-3.55,2.75c-0.65,0.53-1.36,1.23-2.16,1.54c-0.97,0.37-0.9-0.73-0.85-1.4c0.09-1.23,0.35-2.46,0.6-3.67
			c0.56-2.8,1.24-5.57,2.12-8.28c1.84-5.69,4.59-11.04,6.43-16.73c1.79-5.56,2.23-11.44,3.21-17.17c1-5.81,2.17-11.67,4.09-17.25
			c1.92-5.56,4.89-11.05,8.79-15.47c3.01-3.41,6.83-5.65,11.41-6.09c2.11-0.2,4.26,0.13,6.35-0.35c2-0.45,3.48-0.81,4.56,1.35
			c1.09,2.19,1.44,4.75,1.87,7.13c0.52,2.91,1.04,5.82,1.32,8.76c0.14,1.42,0.21,2.84,0.22,4.27"/>
	</g>
	<g id="POLYLINE_1046_">
		<path class="st37" d="M713.45,179.17c5.89-2.77,11.85-5.45,17.91-7.86c5.73-2.27,11.62-4.2,17.73-5.11
			c5.96-0.88,11.94-0.65,17.87,0.31c6.25,1,12.29,2.95,18.54,3.94c3.17,0.5,6.43,0.79,9.56,1.53c0.95,0.22,1.77,0.56,2.21,1.48
			c0.39,0.82,0.58,1.72,0.98,2.54c1.24,2.56,3.19,4.85,5.08,6.95c1.45,1.61,3.29,3.03,4.32,4.97c0.92,1.73,1.22,3.7,1.25,5.64
			c0.02,1.02-0.13,2.33,0.69,3.1c0.77,0.73,2.04,1.1,3,1.48c1.26,0.5,3.76,1.57,4.47-0.23c0.26-0.67,0.26-1.46,0.26-2.17
			c-0.01-1.4-0.13-2.8-0.29-4.18c-0.31-2.6-0.78-5.24-1.82-7.65c-1.12-2.59-2.65-5.12-4.26-7.43c-1.75-2.49-3.81-4.77-5.86-7.02
			c-1.61-1.76-3.31-3.57-5.39-4.77c-2.27-1.31-4.96-1.78-7.46-2.43c-3.11-0.8-6.21-1.66-9.28-2.63c-3.06-0.97-5.98-2.21-8.94-3.46
			c-2.67-1.13-5.42-1.98-8.21-2.76c-3.21-0.89-6.55-1.64-9.66-2.87c-2.36-0.94-3.36-2.62-4.63-4.7c-1.63-2.66-3.79-4.78-5.95-7
			c-2-2.07-3.8-4.32-5.46-6.67c-1.8-2.54-3.34-5.21-4.88-7.91c-0.64-1.12-1.39-2.13-2.44-2.9c-1.84-1.37-4.15-2.16-6.34-2.74
			c-2.71-0.72-5.62-1.16-8.41-0.69c-1.54,0.26-4.11,0.9-4.37,2.73c-0.25,1.75,1.3,3.8,2.08,5.18c3.13,5.57,6.7,10.84,10.62,15.87
			c3.77,4.84,7.79,9.68,12.5,13.64c2.29,1.92,4.88,3.46,7.11,5.45c1.43,1.27,2.17,3.22,4.18,3.67c1.14,0.25,2.32,0.3,3.47,0.48
			c1.62,0.25,3.24,0.54,4.88,0.71"/>
	</g>
	<g id="POLYLINE_1045_">
		<path class="st37" d="M888.77,122.73c0.9,2.86,2.12,5.63,3.23,8.42c0.3,0.74,0.58,1.51,0.99,2.19c0.53,0.88,0.94,0.71,1.3-0.17
			c0.79-1.94,1.26-3.86,2.48-5.6c1.44-2.06,3.35-3.73,4.85-5.75c1.59-2.14,2.37-4.67,3.1-7.2"/>
	</g>
	<g id="POLYLINE_1044_">
		<path class="st37" d="M899.61,152.01c-0.17-2.27-0.34-4.51,0.27-6.73c0.76-2.72,2.16-5.24,3.14-7.88
			c2.11-5.71,1.58-11.55,1.49-17.51c-0.05-3.51,0.37-6.97,0.73-10.45"/>
	</g>
	<g id="POLYLINE_1043_">
		<path class="st37" d="M873.98,152.43c-0.73-4.72-1.41-9.41-1.18-14.2c0.25-5.05,1.11-10.04,1.35-15.09
			c0.24-5.3-0.45-10.53-0.78-15.81c-0.14-2.18-0.2-4.4,0.09-6.57c0.27-2.02,0.94-3.93,1.74-5.79c0.94-2.19,1.92-4.32,2.47-6.64
			c0.58-2.44,0.84-4.95,1.14-7.44c0.47-3.86,1.5-6.99,4.08-9.94c2.39-2.74,5.7-5.63,9.37-6.4c1.3-0.27,2.61-0.15,3.89,0.14
			c1.12,0.25,2.21,0.62,3.33,0.82c1.09,0.19,2.2,0.22,3.3,0.28c3.83,0.21,6.79,1.74,9.64,4.35c2.53,2.32,3.44,5.51,3.54,8.91
			c0.02,0.59,0,1.17-0.08,1.75"/>
	</g>
	<g id="POLYLINE_1042_">
		<path class="st37" d="M890.87,99.67c-0.48,6.93-1.41,13.81-1.92,20.74c-0.51,6.97-1.17,13.96-0.94,20.95
			c0.12,3.77,0.48,7.53,0.96,11.27"/>
	</g>
	<g id="POLYLINE_1041_">
		<path class="st37" d="M910.37,109.36c-3.23,0.33-6.56,0.16-9.72-0.61c-1.9-0.46-3.78-1.22-5.16-2.66
			c-0.75-0.78-1.33-1.71-1.78-2.69"/>
	</g>
	<g id="POLYLINE_1040_">
		<path class="st37" d="M892.04,99.19c-0.91,0.58-2.51,0.9-3.29-0.06c-0.76-0.94-0.13-2.64-0.02-3.68c0.12-1.1-0.16-3.04,1.09-3.61
			c1.26-0.57,2.01,0.59,2.49,1.57c0.53,1.09,1.17,2.28,2.52,1.49c1.26-0.74,0.98-1.76,0.56-2.94c-0.74-2.04-1.51-4.42-0.34-6.47
			c0.78-1.38,2-2.51,2.93-3.79c1.12-1.55,2.19-3.16,3.46-4.59c1.21-1.36,2.58-2.45,4.41-2.76c1.47-0.25,3.04-0.24,4.53-0.24
			c1.49-0.01,2.56,0.49,3.42,1.74c1.73,2.51,2.43,5.77,2.86,8.73c0.24,1.65,0.29,3.34,0.63,4.98c0.27,1.28,0.59,2.49,0.58,3.81
			c-0.02,3.52-1.22,6.94-1.86,10.37c-0.17,0.89-0.3,1.79-0.44,2.69"/>
	</g>
	<g id="POLYLINE_1039_">
		<path class="st37" d="M919.53,160.39c1.74-0.47,3.57-1.4,4.4-3.09c0.41-0.82,0.56-1.75,0.64-2.66c0.2-2.39,0.02-4.82,0.01-7.21
			c-0.01-2.37,0.13-4.75,0.48-7.09c0.35-2.34,1.1-4.49,1.87-6.72c1.27-3.65,1.93-7.76,1.55-11.63c-0.35-3.56-2.17-6.81-4.69-9.31
			c-0.28-0.27-0.56-0.54-0.86-0.79"/>
	</g>
	<g id="POLYLINE_1038_">
		<path class="st37" d="M907.1,153.55c-0.29-2.22-0.58-4.43-0.54-6.68c0.03-1.99,0.21-3.98,0.42-5.96
			c0.56-5.31,1.21-10.62,1.61-15.94c0.19-2.51,0.36-5.03,0.47-7.55c0.09-1.99-0.15-4.12,0.26-6.08c0.52-2.47,3.42-4.01,5.59-4.74
			c0.74-0.25,1.6-0.38,2.22-0.88c0.59-0.47,0.87-1.22,1.1-1.92c0.49-1.44,0.69-3.43,2.28-4.1c1.25-0.53,2.82-0.44,4.14-0.37
			c0.64,0.03,1.9-0.07,2.38,0.45c0.35,0.38,0.39,1.19,0.45,1.69c0.2,1.78,0.11,3.62-0.2,5.38c-0.23,1.31-0.56,3.18-1.69,4.05
			c-2.22,1.71-7,0.72-8.14,3.8c-0.58,1.55-0.54,3.4-0.54,5.03c0,2.13,0.18,4.26,0.49,6.37c0.7,4.79,1.94,9.54,3.21,14.21
			c0.3,1.12,0.63,2.24,0.97,3.35"/>
	</g>
	<g id="POLYLINE_1037_">
		<path class="st37" d="M845.8,187.35c-0.99-0.59-1.88-1.48-2.39-2.52c-1.15-2.34,1.06-4.22,2.14-6.08c1.09-1.88,1.24-4,1.61-6.1
			c0.17-0.96,0.37-2.07,1.02-2.83c0.76-0.88,1.94-1.28,2.74-2.13c1.73-1.8,2.83-4.4,3.39-6.8"/>
	</g>
	<g id="POLYLINE_1036_">
		<path class="st37" d="M897.85,171.65c2.64-2.63,5.97-4.48,9.59-5.36"/>
	</g>
	<g id="POLYLINE_1035_">
		<path class="st37" d="M869.14,151.62c4.67,0.99,9.47,1.34,14.24,1.28c5.05-0.07,10.08-0.81,15.13-0.88
			c2.25-0.03,4.48,0.13,6.63,0.81c2.12,0.66,4.13,1.68,6.1,2.69c4.11,2.1,8.53,4.44,11.78,7.79c2.78,2.86,4.13,6.47,4.65,10.37
			c0.23,1.72,0.43,3.55,0.19,5.28c-0.22,1.5-1.16,2-2.59,2.19c-1.16,0.16-2.35,0.1-3.5-0.13c-1.8-0.36-3.75-0.91-5.38-1.77
			c-1.83-0.95-2.13-2.61-2.71-4.43c-0.6-1.87-1.34-3.76-2.49-5.37c-1.87-2.63-5.07-3.42-7.36-5.55c-1.36-1.26-2.23-2.45-4.24-2.13
			c-2.31,0.37-4.65,0.83-6.93,1.36c-0.92,0.21-1.84,0.46-2.74,0.76"/>
	</g>
	<g id="POLYLINE_1034_">
		<path class="st37" d="M869.14,151.62c0.96-8.67,1.28-17.36,1.48-26.08c0.09-4.11,0.17-8.25-0.02-12.36
			c-0.14-2.94-0.39-6.09-2-8.64c-0.46-0.73-1.06-1.38-1.51-2.13c-0.44-0.73-0.17-1.06,0.6-1.3c1.82-0.56,3.95-0.72,5.84-0.73"/>
	</g>
	<g id="POLYLINE_1033_">
		<path class="st37" d="M869.73,166.73c-3.16,0.46-6.49,0.73-9.68,0.59c-1.97-0.09-3.65-0.6-4.59-2.49
			c-1.01-2.05-1.29-4.47-1.49-6.72c-0.28-3.18-0.26-6.38-0.16-9.57c0.21-6.67,0.77-13.33,1.47-19.96
			c0.67-6.42,1.09-13.19,3.26-19.32c1.19-3.34,3.18-5.81,6.61-6.91c0.55-0.18,1.12-0.32,1.69-0.42"/>
	</g>
	<g id="POLYLINE_1032_">
		<path class="st37" d="M897.24,216.89c-2.44,2.42-2.93,5.43-2.76,8.75c0.15,2.95,0.59,5.92,0.46,8.89
			c-0.12,2.71-0.66,5.33-0.54,8.06c0.07,1.59,0.18,3.18,0.32,4.76c0.07,0.85,0.22,1.67,0.95,2.21c1.32,0.97,3.36,1.04,4.9,1.14
			c3.24,0.22,7.85,0.26,8.93-3.55c0.61-2.15,0.59-4.57,0.51-6.78c-0.1-2.66-0.89-5.06-1.5-7.63c-0.2-0.85-0.41-1.71-0.61-2.56"/>
	</g>
	<g id="POLYLINE_1031_">
		<path class="st37" d="M897.51,217.94c-0.54,4.16-1.47,8.36-1.5,12.57c-0.01,2.01,0.15,4.84,1.96,6.15
			c0.62,0.45,1.39,0.66,2.14,0.78c1.64,0.26,3.43,0.32,5.09,0.21c0.97-0.07,2.01-0.28,2.46-1.25c0.42-0.9,0.34-2.05,0.31-3.01
			c-0.09-3.76,0.15-7.55-1.26-11.09"/>
	</g>
	<g id="POLYLINE_1030_">
		<path class="st37" d="M860.22,215.19c-1.19,3.64-1.75,7.48-1.65,11.31c0.07,2.77,0.48,5.82,2.04,8.19
			c1.69,2.56,5.35,2.19,8.05,2.03c1.1-0.06,2.52-0.14,3.45-0.8c1.11-0.79,0.89-2.22,0.61-3.37c-0.43-1.78-0.94-3.49-1.13-5.32
			c-0.2-1.89-0.22-3.8-0.13-5.69c0.02-0.49,0.06-0.98,0.1-1.46"/>
	</g>
	<g id="POLYLINE_1029_">
		<path class="st37" d="M874.62,209.57c3.54,0.03,7.08,0.03,10.61-0.06c3.31-0.09,6.69-0.22,9.91-1.08
			c1.64-0.44,3.22-1.08,4.78-1.74"/>
	</g>
	<g id="POLYLINE_1028_">
		<path class="st37" d="M870.15,179.66c-2.7,1.78-4.96,4.09-6.23,7.09c-1.34,3.15-1.75,6.64-1.84,10.04
			c-0.12,4.18,0.25,8.55-0.87,12.63c-0.38,1.37-1.2,2.7-1.31,4.14c-0.09,1.21,0.61,2.26,1.22,3.24c0.77,1.25,1.28,2.99,2.64,3.73
			c0.96,0.52,2.16,0.65,3.24,0.66c2.17,0.03,4.71-0.45,5.78-2.58c1.24-2.47,0.88-5.52,1.58-8.16c0.57-2.19,1.74-3.85,3.47-5.3
			c3.15-2.65,6.84-4.49,9.78-7.42c2.96-2.95,5.27-6.48,7.08-10.24c1.87-3.88,3.45-8.21,3.53-12.56c0.05-2.61-0.66-5.15-2.34-7.18
			c-1.63-1.97-3.95-3.28-6.39-3.99c-3.37-0.97-6.95-0.81-10.35-0.13c-3.76,0.76-7.42,2.09-10.85,3.79
			c-3.89,1.92-7.49,4.41-11.14,6.74c-3.45,2.21-7.2,4.57-9.54,8.03c-1.36,2-1.92,4.37-1.8,6.78c0.16,3.08,1.26,6.13,2.9,8.72
			c1.97,3.11,4.77,5.84,7.86,7.81c1.56,1,3.24,1.8,5,2.39"/>
	</g>
	<g id="POLYLINE_1027_">
		<path class="st37" d="M902.17,182.21c-1.31,3.24-2.12,6.47-2.39,9.97c-0.29,3.69-0.07,7.33,0.16,11.02
			c0.09,1.39,0.13,2.8-0.13,4.18c-0.3,1.59-0.95,3.09-1.52,4.6c-0.68,1.79-1.54,3.98-0.81,5.9c0.89,2.35,3.64,3.68,5.92,4.29
			c1.47,0.39,3.33,0.63,4.49-0.59c0.92-0.96,1.33-2.4,1.8-3.6c0.6-1.52,1.24-2.98,2.11-4.37c1.98-3.17,4.54-5.95,6.87-8.86
			c2.38-2.97,4.47-6.17,5.85-9.73c1.4-3.63,2.09-7.53,2.17-11.41c0.02-0.93,0-1.86-0.06-2.79"/>
	</g>
	<g id="POLYLINE_1026_">
		<path class="st37" d="M859.91,214.12c-1,1.12-1.96,2.25-2.48,3.67c-0.74,2-0.83,4.23-0.86,6.34c-0.11,6.34,0.5,12.71,1.08,19.03
			c0.13,1.46,0.26,2.92,0.47,4.37c0.11,0.77,0.27,1.57,0.93,2.07c0.72,0.55,1.76,0.68,2.64,0.8c1.4,0.19,2.82,0.28,4.23,0.31
			c3.43,0.07,7.92,0.1,8.81-4.01c0.54-2.51,0.46-5.34,0.27-7.88c-0.16-2.09-0.75-4.07-1.74-5.92c-0.24-0.45-0.5-0.89-0.78-1.32"/>
	</g>
	<g id="POLYLINE_1025_">
		<path class="st37" d="M567.38,120.86c-0.02,0.71,0.09,1.43,0.26,2.12c0.33,1.32,0.82,2.96,1.61,4.08c0.66,0.94,1.75,0.12,2.5-0.3
			c1.22-0.69,2.44-1.39,3.79-1.8c2.36-0.72,4.96-0.76,7.38-0.33c1.12,0.2,2.21,0.52,3.25,0.99c0.81,0.37,2.66,1.85,3.21,0.5
			c0.48-1.16,0.21-2.74,0.13-3.94c-0.14-2.27-0.22-4.53-0.28-6.81"/>
	</g>
	<g id="POLYLINE_1024_">
		<path class="st37" d="M605.92,154.99c-2.29-1.05-5.16-1.72-7.69-1.33c-1.53,0.23-2.95,1.09-4.41,1.56
			c-1.58,0.51-3.21,0.86-4.88,0.84c-2.72-0.04-5.8-0.88-8.01-2.52c-2-1.48-2.9-4.08-2.87-6.52c0.01-0.94,0.2-1.94,1.01-2.52
			c1.26-0.89,3.16-0.75,4.6-1.03c2.66-0.52,4.46-2.41,6.91-3.38c2.7-1.07,4.03,1.87,6.27,2.71c1.08,0.41,2.27,0.44,3.41,0.49
			c1.91,0.09,3.76,0.33,5.63,0.74c1.9,0.42,3.81,1.12,5.75,1.32c1.47,0.15,1.46-0.97,1.18-2.11c-0.47-1.92-1.38-3.76-2.16-5.57
			c-0.82-1.91-1.58-3.85-2.25-5.83c-0.41-1.21-0.82-2.42-1.23-3.64"/>
	</g>
	<g id="POLYLINE_1023_">
		<path class="st37" d="M604.47,143.73c0.83-4,1.47-8,2.1-12.04c0.53-3.4,1.15-6.87,2.27-10.13c0.46-1.34,1.4-2.1,2.46-3
			c1.42-1.21,2.9-2.32,4.38-3.46c0.99-0.76,1.88-1.6,1.95-2.91c0.05-0.87-0.17-1.77-0.39-2.6c-0.95-3.48-1.96-7.12-3.85-10.22"/>
	</g>
	<g id="POLYLINE_1022_">
		<path class="st37" d="M617.09,113.77c0.9,4.21,1.87,8.39,2.88,12.58c1.06,4.39,2.22,8.77,3.06,13.21
			c0.43,2.28,0.66,4.58,0.88,6.89"/>
	</g>
	<g id="POLYLINE_1021_">
		<line class="st37" x1="571.3" y1="127.02" x2="578.48" y2="145.15"/>
	</g>
	<g id="POLYLINE_1020_">
		<path class="st37" d="M588.88,126.7c1,4.38,2.06,8.74,3.13,13.1"/>
	</g>
	<g id="POLYLINE_1019_">
		<path class="st37" d="M596.14,154.36c0.32,0.87,0.66,1.83,1.22,2.58c0.69,0.93,1.5,0.7,2.49,0.4c2.82-0.87,5.56-2.11,8.25-3.3
			c5.78-2.56,11.58-5.22,17.11-8.3c1.61-0.9,2.97-2.02,4.88-2.01c2.55,0.01,5.14,0.75,7.57,1.46c1.69,0.49,3.37,1.02,5.06,1.54
			c0.88,0.27,1.88,0.52,2.55,1.2c0.66,0.67,0.88,1.67,1.06,2.57c0.31,1.46,0.7,2.9,0.98,4.36c0.28,1.45,0.26,2.8-0.56,4.09
			c-0.75,1.18-1.91,2.16-3.16,2.79c-0.28,0.14-0.57,0.27-0.86,0.38"/>
	</g>
	<g id="POLYLINE_1018_">
		<path class="st37" d="M590.3,171.3c-0.64,2.52-1.64,5.07-2.64,7.47c-0.68,1.64-1.9,2.39-3.57,2.71c-2.65,0.51-5.47,0.35-8.15,0.29
			c-3.38-0.07-6.75-0.18-10.13-0.28c-5.91-0.16-11.8,0.13-17.71,0.27c-1.61,0.04-3.59,0.31-5.14-0.31
			c-1.84-0.73-1.35-3.11-1.05-4.64c0.58-2.95,1.31-5.88,1.9-8.83c0.44-2.23,1.02-4.42,2.08-6.44c1.36-2.61,3.2-4.94,4.63-7.51
			c1.2-2.16,1.99-4.46,2.59-6.85c0.69-2.75,1.19-5.55,2-8.27c0.67-2.23,1.53-4.4,2.37-6.57c2.34-6.01,4.39-12.28,7.26-18.07
			c2.57-5.19,6.35-9.09,11.36-11.97c2.27-1.31,4.75-2.39,6.84-4c1.72-1.32,3.15-2.53,5.17-3.39c0.86-0.37,1.74-0.69,2.66-0.88"/>
	</g>
	<g id="POLYLINE_1017_">
		<path class="st37" d="M594.28,84.04c-0.92-0.5-1.93,0.57-2.44-0.82c-0.4-1.09-0.27-2.46-0.26-3.59c0.01-1.18-0.21-4.75,1.22-5.53
			c0.93-0.51,1.08,1.78,1.26,2.31c0.14,0.41,0.4,1.07,0.93,0.78c0.34-0.18,0.46-0.81,0.57-1.15c0.6-2.02,0.78-4.17,1.89-6.01
			c0.58-0.97,1.35-1.79,2.1-2.62c0.88-0.96,1.62-2.22,2.73-2.93c1.35-0.87,3.2-0.83,4.74-0.65c0.75,0.09,1.5,0.24,2.21,0.5
			c0.48,0.18,0.93,0.41,1.31,0.76c0.41,0.38,0.68,0.94,1.27,1.05c1,0.18,1.9-0.29,2.93,0.12c0.58,0.23,1.1,0.59,1.59,0.97
			c1.71,1.32,3.5,2.59,3.74,4.84c0.33,3.08-0.53,6.01-1.31,8.95c-0.11,0.42-0.68,2.15-0.02,2.38c0.65,0.23,1.67-2.33,1.99-2.8
			c0.57-0.81,1.72-1.42,1.97,0.03c0.17,1-0.73,2.39-1.1,3.21c-0.54,1.21-1.03,2.49-1.76,3.61c-0.22,0.34-0.49,0.79-0.89,0.91
			c-0.58,0.18-0.83-0.33-1.31-0.51c-0.55-0.2-0.6,0.2-0.72,0.69c-0.17,0.67-0.31,1.34-0.54,2c-0.48,1.35-1.16,2.63-2.02,3.78
			c-2.01,2.71-5.14,4.43-8.47,4.88c-2.77,0.37-5.44-0.34-7.56-2.18c-2.77-2.41-4.49-6.09-4.13-9.78
			C594.28,86.56,594.96,84.55,594.28,84.04z"/>
	</g>
	<g id="POLYLINE_1016_">
		<path class="st37" d="M594.2,89.12c-0.9,2.71-2.86,4.6-5.12,6.22c-0.69,0.49-1.46,0.86-2.14,1.35c-0.76,0.55-0.59,0.93-0.02,1.56
			c0.9,0.99,1.55,2.02,2.16,3.22c1.78,3.47,3.57,6.72,6.53,9.33c0.84,0.74,2.18,1.97,3.39,2.04c1.21,0.07,1.66-1.47,2-2.38
			c0.75-1.99,1.51-3.9,2.64-5.71c1.11-1.77,2.39-3.42,3.74-5.01c0.32-0.38,0.65-0.76,0.98-1.13"/>
	</g>
	<g id="POLYLINE_1015_">
		<path class="st37" d="M607.27,99.86c1.27,0.31,2.55,0.34,3.85,0.18c0.7-0.09,1.46-0.21,2.08-0.57c0.89-0.5,1.2-1.53,2.12-2.03
			c1.79-0.98,3.86-1.45,4.51-3.68c0.25-0.84,0.22-1.74,0.07-2.6c-0.17-0.98-0.52-1.94-1.05-2.79"/>
	</g>
	<g id="POLYLINE_1014_">
		<path class="st37" d="M593.06,73.97c-0.23-4.2,1.24-8.4,3.62-11.84c1.41-2.04,3.23-3.88,5.29-5.26c1.11-0.74,2.36-1.4,3.71-1.54
			c1.18-0.12,2.34,0.19,3.44,0.57c2.39,0.82,4.98,1.43,7.2,2.67c2.04,1.14,3.87,2.79,5.39,4.56c0.79,0.91,1.44,1.92,1.84,3.06
			c0.6,1.72,0.71,3.63,0.56,5.43c-0.18,2.14-1.11,4-1.65,6.05c-0.17,0.66-0.32,1.33-0.48,2"/>
	</g>
	<g id="POLYLINE_1013_">
		<path class="st37" d="M609.46,56.03c0.52-0.53,1.17-0.94,1.88-1.17c1.48-0.48,2.59,0.15,3.75,1.03c0.61,0.46,1.2,0.9,1.95,1.13
			c0.51,0.15,1.06,0.19,1.52,0.48c1.07,0.68,1.46,2.12,2.45,2.93c0.68,0.55,1.29,0.98,1.43,1.91c0.08,0.54,0.03,1.1-0.09,1.62"/>
	</g>
	<g id="POLYLINE_1012_">
		<path class="st37" d="M542.65,181.32c-0.69,6.74-0.05,13.8,1.9,20.3c1.16,3.85,2.98,7.79,6.61,9.84
			c4.93,2.79,11.24,2.05,16.48,0.67c6.81-1.8,13.36-4.46,20.16-6.31c3.32-0.91,6.69-1.7,10.13-2.03c3.25-0.31,6.51-0.17,9.75,0.17
			c0.88,0.09,1.75,0.2,2.63,0.3"/>
	</g>
	<g id="POLYLINE_1011_">
		<path class="st37" d="M585.75,180.97c5.06,0.1,10.06,0.47,15.06,1.32c4.98,0.84,9.93,1.94,14.81,3.23
			c4.26,1.13,8.89,2.34,12.44,5.07c1.96,1.51,3.35,3.58,3.5,6.1c0.23,3.7-1.47,7.59-3.52,10.58c-2.35,3.42-5.66,5.53-9.64,6.58
			c-4.64,1.22-9.55,1.47-14.32,1.78c-5.28,0.34-10.59,0.58-15.82,1.32c-2.45,0.35-4.87,0.85-7.26,1.47
			c-2.15,0.56-4.26,1.41-6.44,1.85c-3.27,0.67-5.76-3.51-6.71-6.06c-0.24-0.65-0.43-1.31-0.55-1.99"/>
	</g>
	<g id="POLYLINE_1010_">
		<path class="st37" d="M550.92,211.33c-2.63,0.82-4.97,2.53-6.14,5.08c-1.35,2.94-0.47,5.67,1.06,8.34
			c1.32,2.31,2.76,4.53,3.52,7.1c0.84,2.88,1,5.88,1.56,8.82c0.75,3.95,2.4,7.63,6.47,8.9c2.69,0.84,5.56,1.1,8.37,1.26
			c2.23,0.12,4.65,0.26,6.83-0.37c2.44-0.71,2.14-2.58,1.8-4.63c-0.17-1.03-0.31-2.04-0.97-2.9c-0.68-0.89-1.63-1.54-2.41-2.34
			c-1.99-2.04-1.92-4.69-1.39-7.33c0.54-2.69,1.59-5.27,2.03-7.98c0.31-1.9-0.3-3.62-2.41-3.93c-2.29-0.34-4.67,0.33-6.96,0.41
			c-1.6,0.05-3.34-0.02-4.83-0.67c-2.63-1.13-2.82-4.29-2.08-6.71c0.14-0.45,0.31-0.89,0.54-1.31"/>
	</g>
	<g id="POLYLINE_1009_">
		<path class="st37" d="M568.92,221.3c1.04-0.54,2.12-1.01,3.23-1.39"/>
	</g>
	<g id="POLYLINE_1008_">
		<path class="st37" d="M582.36,154.4c1.45,3.26,2.9,6.52,4.35,9.78c0.99,2.23,1.88,4.6,3.24,6.63c0.95,1.42,2.2,2.32,3.97,2.12
			c2.15-0.23,4.27-1.27,6.24-2.09c5.58-2.33,10.83-5.27,15.91-8.53c2.5-1.61,4.94-3.3,7.36-5.03c2.27-1.62,4.55-3.55,7.12-4.69
			c2.95-1.3,6.58,0.18,8.87,2.2c3.06,2.68,3.33,7.04,3.7,10.83c0.61,6.22,1.88,12.35,2.41,18.58c0.58,6.79,0.71,13.62,1.01,20.43
			c0.08,1.92,0.45,4.1,0.03,5.99c-0.37,1.64-3.59,1.79-4.85,2.02c-2.57,0.48-5.31,1.23-7.93,1.23c-0.9,0-1.42-0.21-1.74-1.1
			c-0.43-1.18-0.68-2.43-0.98-3.65c-0.42-1.65-0.83-3.31-1.25-4.96"/>
	</g>
	<g id="POLYLINE_1007_">
		<path class="st37" d="M626.17,189.35c-0.76-4.15-0.8-8.21-0.87-12.41c-0.01-0.53,0.02-1.14-0.13-1.67
			c-0.25-0.91-0.67-0.12-0.95,0.35c-1.02,1.66-2.17,3.19-3.45,4.66c-1.62,1.85-3.35,3.59-5.18,5.23"/>
	</g>
	<g id="POLYLINE_1006_">
		<path class="st37" d="M629.51,248.88c-0.45-0.63-0.35-1.48-0.28-2.21c0.12-1.32,0.33-2.64,0.53-3.95
			c0.37-2.46,0.79-4.94,1.45-7.34c0.24-0.86,1.13-4.59,2.63-3.71c0.73,0.43,1.13,1.47,1.67,2.1c0.56,0.65,1.2,1.1,2.08,1.14
			c2.86,0.13,4.75-2.64,6.35-4.52c1.4-1.65,3.28-2.62,5.48-2.57c1.76,0.04,2.72,0.93,3.49,2.46c0.86,1.72,1.89,3.19,3.25,4.56
			c1.5,1.52,3.19,2.89,5.04,3.95c2.12,1.22,4.44,1.84,6.76,2.57c1.6,0.51,3.32,1.13,3.82,2.92c0.26,0.95,0.3,2.03,0.12,3
			c-0.66,3.67-5.2,3.35-8.05,3.38c-5.76,0.05-11.52,0.1-17.28,0.08c-2.69-0.01-5.38-0.07-8.07-0.19c-2.33-0.11-4.74-0.19-7.03-0.7
			C630.77,249.68,629.96,249.48,629.51,248.88z"/>
	</g>
	<g id="POLYLINE_1005_">
		<path class="st37" d="M633.95,231.76c0.59-4.65-0.02-9.35-0.49-13.98c-0.13-1.32-0.29-2.64-0.46-3.96"/>
	</g>
	<g id="POLYLINE_1004_">
		<path class="st37" d="M645.83,211.58c0.61,5.47,1.37,10.9,2.32,16.32"/>
	</g>
	<g id="POLYLINE_1003_">
		<path class="st37" d="M89.13,137.36c1.18,7.06,1.93,14.44,4.17,21.27c0.73,2.23,1.59,4.81,3.2,6.57c0.65,0.71,1.42,1.28,1.96,2.08
			c0.61,0.91,0.81,1.96,0.88,3.03c0.12,1.92-0.42,4.07,0.27,5.92c0.64,1.73,2.56,2.5,3.48,4.05c1.44,2.42,0.77,5.28,2.24,7.66
			c2.41,3.91,6.89,3.73,10.97,4.02c3.62,0.26,7.75,2.47,11.26,0.55c1.3-0.71,1.85-1.88,2.24-3.24c0.47-1.66,1-3.3,1.4-4.98
			c0.64-2.66,0.66-5.4-0.05-8.05c-0.61-2.31-3.25-3.25-4.91-4.71c-1.31-1.15-1.91-2.75-2.2-4.44c-0.42-2.45-0.2-5.09-1.03-7.44
			c-0.31-0.87-0.75-1.69-0.97-2.6c-0.22-0.94-0.23-1.91-0.23-2.87c0.02-3.98,0.32-7.98,0.51-11.95c0.14-3.07,0.3-6.14-0.23-9.19
			c-0.28-1.61-0.7-3.2-1.14-4.78"/>
	</g>
	<g id="POLYLINE_1002_">
		<path class="st37" d="M128.36,191.96c4.57-0.05,9.11-0.11,13.66-0.54c4.97-0.47,9.95-1.09,14.94-1.24
			c2.23-0.07,4.46-0.03,6.67,0.27c2.15,0.29,4.26,0.82,6.42,1.02c2.24,0.21,4.51-0.07,6.69-0.6c1.57-0.38,3.29-0.84,4.61-1.81
			c2.47-1.82,3.44-5.54,3.93-8.38c0.21-1.21,0.36-2.57-0.03-3.76c-0.42-1.28-1.55-1.88-2.78-2.18c-1.92-0.47-4-0.54-5.97-0.62
			c-1.75-0.07-3.51-0.06-5.24,0.26c-3.38,0.62-6.04,2.94-9.29,3.9c-4.26,1.26-9.12,0.78-13.5,0.61c-4.6-0.18-9.26-0.42-13.79-1.27
			c-1.13-0.21-2.25-0.45-3.38-0.68"/>
	</g>
	<g id="POLYLINE_1001_">
		<path class="st37" d="M103.86,182.06c-2.53,0.22-4.96,0.56-7.31,1.59c-2.42,1.06-4.68,2.51-6.85,4.01
			c-4.2,2.9-7.98,6.85-12.86,8.61c-3.59,1.29-8.39,2.02-12.11,0.81c-1.14-0.37-2.02-1.1-2.54-2.18c-0.94-1.93-1.36-4.25-1.71-6.35
			c-0.4-2.41-0.61-4.93-0.18-7.36c0.45-2.54,1.65-4.87,2.71-7.2c2.29-5.05,3.49-10.39,4.7-15.78c1.27-5.65,2.39-11.38,4.32-16.85
			c1.78-5.03,4.39-9.63,7.73-13.78c3.55-4.41,7.64-8.39,11.78-12.23c4.35-4.03,8.69-8.15,13.38-11.78c1.1-0.85,2.22-1.65,3.36-2.45"
			/>
	</g>
	<g id="POLYLINE_1000_">
		<path class="st37" d="M108.3,101.12c0.76,1.32,2.02,2.4,3.13,3.41c1.66,1.52,3.4,2.97,5.1,4.44c2.89,2.49,5.68,5.09,8.23,7.94
			c2.69,3.01,5.17,6.26,7.23,9.74c0.94,1.59,1.7,3.24,2.43,4.93c0.18,0.4,0.49,1.47,0.97,1.61c0.53,0.16,0.82-0.62,0.98-1.01
			c1.79-4.31,1.3-10.55-1.59-14.31c-0.91-1.18-2.1-2.09-3.16-3.11c-1.08-1.03-1.95-2.21-2.75-3.47c-1.96-3.06-3.75-6.24-6.71-8.45
			c-1.63-1.22-3.44-2.16-5.22-3.14c-1.52-0.84-2.9-1.81-4.34-2.77c-0.97-0.65-1.92-0.99-2.86-0.09c-0.72,0.69-1.38,1.81-1.64,2.78
			C107.95,100.14,108.01,100.64,108.3,101.12z"/>
	</g>
	<g id="POLYLINE_999_">
		<path class="st37" d="M123.81,165.37c2.58-3.4,4.92-6.97,7.11-10.63c2.08-3.48,4.07-7.05,5.51-10.85
			c1.3-3.43,2.03-7.03,2.65-10.64c0.4-2.32,0.81-4.64,1.19-6.96c0.26-1.61,0.47-3.27,0.29-4.9c-0.37-3.46-2.38-6.81-4.54-9.45"/>
	</g>
	<g id="POLYLINE_998_">
		<path class="st37" d="M133.39,116.36c1.38-3.45,3.73-5.75,6.73-7.87c1.09-0.77,2.19-1.51,3.33-2.2"/>
	</g>
	<g id="POLYLINE_997_">
		<path class="st37" d="M133.41,103.92c4.2,1.82,9.35,3.01,13.94,2.22c2.77-0.47,4.92-2.69,4-5.62c-0.26-0.82-0.49-1.48-0.45-2.35
			c0.04-0.96-0.18-1.73-0.27-2.68c-0.07-0.7,0.11-1.84,0.35-2.5c0.3-0.8,1.32-0.74,2-1.09c1.79-0.9,0.63-3.23-0.26-4.39
			c-1.04-1.35-2.13-2.56-2.77-4.16c-0.61-1.52-0.58-3.18-1.04-4.73c-0.64-2.13-1.82-4.17-3.1-5.98c-0.34-0.48-0.69-0.95-1.07-1.4"/>
	</g>
	<g id="POLYLINE_996_">
		<path class="st37" d="M129.97,94.25c-1.8,0.75-3.27,0.28-4.8-0.8c-1.07-0.76-2-1.74-2.47-2.99c-0.56-1.5-0.65-3.39-0.26-4.93
			c0.56-2.24,2.8-2.18,4.53-1.33c1.06,0.52,1.53,1.3,2.08,2.3c0.42,0.77,1.04,0.65,1.73,1.05c0.62,0.36,0.92,1.08,1.15,1.72
			c0.41,1.13,0.43,2.95,1.31,3.84c0.75,0.75,2.03-0.04,2.73-0.53c2.37-1.67,0.37-4.7-0.29-6.77c-0.37-1.15,0.12-1.73,0.64-2.73
			c0.62-1.2,0.44-2.42,0.2-3.69c-0.19-0.99-0.92-3-0.16-3.94c0.67-0.84,2.22-0.78,3.16-1.11c1.24-0.44,1.97-1.31,2.9-2.19
			c1.07-1.02,2.5-0.54,3.42-1.85c1.18-1.67,0.66-4.16-1.02-5.31c-1.02-0.7-2.59-0.38-3.49-1.16c-0.47-0.41-0.48-1.09-0.69-1.64
			c-0.26-0.67-0.72-1.02-1.41-1.19c-0.79-0.2-1.67-0.18-2.47-0.07c-0.59,0.08-1.16,0.29-1.75,0.36c-0.7,0.08-1.21-0.25-1.79-0.57
			c-2.76-1.52-5.77-0.08-8.71-0.13c-2.26-0.04-5-1.67-6.83,0.31c-1.52,1.64-2.23,3.59-4.25,4.69c-1.24,0.67-2.04,1.24-2.09,2.73
			c-0.04,1.16,0.22,2.41-0.12,3.54c-0.43,1.42-2.23,1.97-2.47,3.44c-0.23,1.34,0.27,2.39-0.52,3.65c-0.79,1.27-1.85,2.34-2.54,3.67
			c-0.63,1.2-0.49,2.34-0.57,3.65c-0.04,0.75-0.13,1.51-0.06,2.25c0.08,0.89,0.45,1.21,1.14,1.72c0.59,0.44,1,1.02,1.52,1.54
			c0.53,0.52,1.29,0.65,1.76,1.23c0.69,0.85,1.09,2.2,1.03,3.3"/>
	</g>
	<g id="POLYLINE_995_">
		<path class="st37" d="M120.3,101.57c0.93,0.02,1.93-0.19,2.76-0.62c1.04-0.54,1.16-1.19,1.09-2.25c-0.08-1.18,0.91-0.99,1.71-1.45
			c0.94-0.55,1.16-1.79,1.17-2.79"/>
	</g>
	<g id="POLYLINE_994_">
		<path class="st37" d="M63.82,196.68c0.14,4.33,1.23,7.92,4.18,11.16c3.21,3.53,7.56,6.15,12.4,6.37c2.54,0.12,5.07-0.26,7.58-0.56
			c2.88-0.34,5.76-0.56,8.65-0.7c5.76-0.27,11.51-0.36,17.27-0.75c5.63-0.38,11.25-1.05,16.9-1.15c0.81-0.01,1.62-0.03,2.43-0.04"/>
	</g>
	<g id="POLYLINE_993_">
		<path class="st37" d="M83.72,214.13c0.03,2.6,0.28,5.16,1.17,7.62c0.84,2.31,2.07,4.48,3.44,6.52c1.24,1.84,2.62,3.6,4.16,5.2
			c1.13,1.18,2.42,2.44,3.95,3.1c1.5,0.65,2.6,0.12,3.76-0.85c1.4-1.17,2.72-2.08,4.45-2.72c2.49-0.91,5.1-1.46,7.63-2.22
			c2.59-0.79,5.12-1.74,7.65-2.68c5.13-1.91,10.22-3.77,15.58-4.89c5.37-1.12,11.01-1.66,16.12-3.75c3.66-1.5,6.76-3.98,8.72-7.45
			c1.58-2.81,2.34-6.17,1.37-9.32c-0.98-3.17-3.5-5.16-6.45-6.46c-4.77-2.09-10.2-3.42-15.35-4.09c-1.18-0.15-2.36-0.25-3.54-0.3"/>
	</g>
	<g id="POLYLINE_992_">
		<path class="st37" d="M99.42,236.33c0.98,1.74,2,3.45,3.17,5.08c0.75,1.04,1.68,2.06,2.15,3.27c0.52,1.35,0.22,2.84-0.69,3.95
			c-1.13,1.38-2.94,1.78-4.62,1.94c-3.98,0.39-8.13-0.01-12.1-0.19c-2.22-0.1-4.73-0.21-6.7-1.38c-2-1.2-2.62-3.55-3.09-5.68
			c-0.31-1.42-0.56-2.87-1.07-4.24c-0.58-1.56-1.47-2.98-2.43-4.33c-2.31-3.23-4.85-6.38-6.63-9.95c-0.82-1.64-1.71-3.79-0.38-5.42
			c0.76-0.93,1.95-1.51,3.01-2.02c1.7-0.8,3.5-1.37,5.18-2.23c0.77-0.39,1.49-0.87,2.23-1.31"/>
	</g>
	<g id="POLYLINE_991_">
		<path class="st37" d="M81.61,214.24c-1.7,1.44-3.08,3.73-3.43,5.95c-0.46,2.86,2.09,4.55,4.42,5.49c1.49,0.59,3.1,0.98,4.7,0.99"
			/>
	</g>
	<g id="POLYLINE_990_">
		<path class="st37" d="M138.36,249.84c-0.94-1.01-0.65-2.79-0.49-4.01c0.34-2.61,0.89-5.21,1.53-7.76
			c0.47-1.86,0.88-4.35,2.17-5.87c1.37-1.62,3.53-0.51,4.49,0.94c0.9,1.36,1.56,3.59,3.23,4.26c1.3,0.52,2.84-0.05,4.02-0.64
			c2.98-1.48,5.2-4.84,8.87-4.11c4.26,0.85,7.67,4.06,11.82,5.28c2.34,0.69,4.82,0.8,7.25,0.79c1.82-0.01,3.76-0.29,4.73,1.59
			c0.75,1.46,1.03,3.23,1.16,4.84c0.14,1.79-0.62,3.13-2.16,4.1c-2.83,1.78-6.64,1.42-9.82,1.36c-5.96-0.12-11.9-0.2-17.86-0.11
			c-3.45,0.05-6.9,0.13-10.35,0.2c-2.17,0.04-4.5,0.27-6.66-0.06C139.6,250.54,138.87,250.36,138.36,249.84z"/>
	</g>
	<g id="POLYLINE_989_">
		<path class="st37" d="M144.5,221.5c-0.47,1.01-0.78,2.13-0.59,3.24c0.23,1.39,0.55,2.51,0.39,3.94c-0.1,0.93-0.31,1.86-0.61,2.75"
			/>
	</g>
	<g id="POLYLINE_988_">
		<path class="st37" d="M161.78,232.58c1.39-2.44,2.91-5.21,3.51-7.97c0.35-1.62-0.21-3.06-0.28-4.68c-0.12-2.45,1.06-4.88,1.66-7.2
			c0.87-3.36,0.89-6.81,0.94-10.26c0.06-3.77,0.33-7.46,0.88-11.19"/>
	</g>
	<g id="POLYLINE_987_">
		<path class="st37" d="M134.28,148.73c0.67,1.98,1.74,4.15,3.9,4.81c2.16,0.66,4.51,0.14,6.62,1.05c1.48,0.64,2.76,1.65,4.19,2.37
			c1.43,0.72,2.99,1.21,4.54,1.59c1.49,0.36,3.18,0.83,4.73,0.74c1.56-0.09,1.89-2.36,2.39-3.5c1.4-3.21,3.82-6.08,4.68-9.52
			c0.46-1.84,0.07-3.74-1.81-4.59c-1.12-0.51-2.37-0.65-3.52-1.08c-1.15-0.43-1.82-1.31-2.73-2.08c-1.02-0.87-2.32-1.19-3.53-1.69
			c-1.02-0.42-1.65-0.96-2.24-1.91c-0.8-1.27-2.09-1.41-3.4-1.94c-1.05-0.42-1.88-1.06-2.51-2.02c-1.79-2.76-2.16-6.19-3.85-9.03
			c-0.52-0.88-1.08-1.73-1.62-2.59"/>
	</g>
	<g id="POLYLINE_986_">
		<path class="st37" d="M159.18,158.97c1.82,0.72,3.63,1.48,5.55,1.91c1.65,0.37,3.32,0.46,5,0.52c1.78,0.06,3.59,0.03,5.35,0.32
			c1.31,0.21,2.29,0.64,2.74,1.97c0.69,2.07,1.41,3.87,2.8,5.59c1.47,1.81,3.34,3.23,5.53,4.06c1.88,0.71,4.54,1.29,6.35,0.1
			c1.69-1.11,2.12-3.54,2.36-5.38c0.27-2.1,0.32-4.47-0.51-6.46c-1.18-2.83-4.4-3.05-6.91-4.03c-3.26-1.27-6.08-3.45-9.19-5.02
			c-3.36-1.69-6.91-3.01-10.48-4.17c-0.94-0.31-1.89-0.6-2.84-0.89"/>
	</g>
	<g id="POLYLINE_985_">
		<path class="st37" d="M126.38,161.84c6.12-1.92,12.45-3.31,18.83-3.94c1.7-0.17,3.4-0.27,5.11-0.35"/>
	</g>
	<g id="POLYLINE_984_">
		<path class="st37" d="M171.14,174.42c0.51-4.34,0.67-8.61,0.29-12.97"/>
	</g>
	<g id="POLYLINE_983_">
		<path class="st37" d="M289.04,96.79c1.68-1.41,2.9-3.31,3.53-5.42"/>
	</g>
	<g id="POLYLINE_982_">
		<path class="st37" d="M293.13,99.16c0.79,3.73,3.23,6.68,5.73,9.47c1.21,1.35,2.57,2.92,4.49,3.1c1.14,0.11,2.34-0.12,3.42-0.47
			c1.09-0.36,2.07-0.89,2.87-1.73c0.61-0.64,1.12-1.37,1.73-2c0.85-0.87,1.8-1.63,2.68-2.45c3.25-3.05,4.55-6.89,5.99-11.01
			c0.85-2.45,1.88-4.83,2.67-7.3c0.37-1.16,1.53-3.99,0.38-5.07c-0.48-0.45-1.25-0.62-1.86-0.83c-1.65-0.6-3.3-1.2-4.94-1.8
			c-2.33-0.85-4.67-1.82-7.07-2.44c-1.47-0.38-3.23-0.73-4.38,0.51c-0.62,0.67-1,1.53-1.74,2.1c-0.69,0.52-1.52,0.81-2.2,1.34
			c-1.21,0.94-1.87,2.48-2.48,3.83c-0.42,0.93-0.81,1.92-1.36,2.78c-0.53,0.84-0.97,0.78-1.14-0.2c-0.21-1.2,0.19-2.43-0.04-3.6
			c-0.41-2.05-2.17-1.11-3.02,0c-1.61,2.1-1.44,5.67-0.29,7.96c0.39,0.79,1.07,0.86,1.84,0.57"/>
	</g>
	<g id="POLYLINE_981_">
		<path class="st37" d="M342.9,155.18c5.55,5.94,11.06,12.08,15.95,18.58c2.31,3.07,3.93,6.57,6.22,9.64
			c2.1,2.81,4.31,5.61,5.26,9.06c0.44,1.58,0.39,3.15,0.01,4.74c-0.68,2.86-1.85,5.79-3.86,7.98c-1.42,1.54-4.19,3.73-5.69,1.16
			c-0.65-1.12-1-2.41-1.41-3.63c-0.69-2.04-1.38-4.09-2.09-6.12c-0.69-1.98-1.41-3.95-2-5.96c-0.54-1.82-0.93-3.69-1.56-5.49
			c-0.92-2.63-2.42-5.06-4.41-7.01c-0.57-0.56-1.18-1.08-1.81-1.56"/>
	</g>
	<g id="POLYLINE_980_">
		<path class="st37" d="M312.46,126.94c4.18,6.52,9.3,12.19,15.25,17.15c1.55,1.29,3.14,2.52,4.79,3.67"/>
	</g>
	<g id="POLYLINE_979_">
		<path class="st37" d="M303.55,137.27c4.25-1.59,7.29-4.73,8.63-9.12c0.59-1.94,0.43-3.63-1.17-5.03c-1.39-1.22-2.97-2.17-4-3.75
			c-0.74-1.13-1.22-2.41-1.96-3.55c-0.74-1.15-1.72-2.1-2.69-3.05"/>
	</g>
	<g id="POLYLINE_978_">
		<path class="st37" d="M260.31,115.79c0.7,1.06,1.44,2.11,1.97,3.28c0.58,1.3,0.85,2.7,1.34,4.02c0.49,1.3,1.23,2.37,2.47,3.05
			c0.79,0.43,1.67,0.7,2.54,0.9"/>
	</g>
	<g id="POLYLINE_977_">
		<path class="st37" d="M291.29,213.32c3.71-1.85,7.09-3.85,10.32-6.45c3.59-2.89,7.06-5.95,10.84-8.6
			c3.41-2.39,7.11-4.13,11.09-5.36c4.05-1.24,8.34-2.06,12.16-3.95c2.72-1.34,4.5-3.36,5.9-6.01c0.25-0.47,0.49-0.94,0.73-1.41"/>
	</g>
	<g id="POLYLINE_976_">
		<path class="st37" d="M273.66,127.17c-1.38,0.26-4.95,0.92-5.73-0.84c-0.62-1.4,0.65-3.37,1.54-4.39c1.31-1.5,3.07-1.98,4.97-2.25
			c3.33-0.47,6.74-0.98,10.11-0.99c1.79-0.01,3.84,0.08,5.25,1.34c0.56,0.5,0.99,1.14,1.39,1.77c0.88,1.37,1.81,2.65,2.88,3.88
			c2.26,2.61,4.65,5.1,6.72,7.87c1.61,2.16,3.21,5.08,5.59,6.53c1.42,0.86,3.13,0.8,4.73,0.99c3.16,0.37,6.34,1.08,9.33,2.19
			c3.17,1.18,6.02,2.99,9.32,3.83c2.8,0.72,5.86,1.14,8.41,2.59c4.56,2.6,5.84,8.15,7.28,12.79c1.74,5.61,3.81,11.8,0.99,17.46
			c-0.92,1.85-3.33,2.24-5.07,1.23c-0.98-0.57-1.3-1.64-1.49-2.69c-0.27-1.46-0.4-2.94-0.82-4.37c-0.93-3.11-3.03-5.71-4.31-8.66
			c-0.62-1.43-0.99-2.94-1.54-4.39c-0.33-0.87-0.74-1.54-1.72-1.71c-1.22-0.21-2.55-0.33-3.78-0.29"/>
	</g>
	<g id="POLYLINE_975_">
		<path class="st37" d="M255.67,217.81c-2.68,2.18-4.47,5.11-6.21,8.06c-1.52,2.57-3.57,5.6-3.78,8.67c-0.22,3.24,3.82,5,6.16,6.3
			c3.83,2.13,7.8,4.03,11.77,5.89c3.76,1.76,7.57,3.24,11.72,3.72c4.61,0.53,9.35,0.28,13.98,0.27c1.29,0,2.62,0.04,3.88-0.27
			c1.4-0.34,1.95-1.27,1.98-2.67c0.06-2.48-0.59-5.15-3.14-6.09c-3.02-1.1-6.17-1.33-8.84-3.26c-2.83-2.04-5.03-5.08-6.5-8.22
			c-0.38-0.81-0.71-1.64-0.99-2.48"/>
	</g>
	<g id="POLYLINE_974_">
		<path class="st37" d="M231.66,192.05c2.3,4.44,5.65,8.34,9.81,11.16c1.95,1.32,4.13,2.38,6.46,2.8c2.57,0.47,5.22,0.2,7.76-0.28
			c3.31-0.62,6.67-1.4,9.87-2.45"/>
	</g>
	<g id="POLYLINE_973_">
		<path class="st37" d="M301.11,156.59c-4.62,0.55-9.23,1.33-13.8,2.24c-4.14,0.82-8.19,1.97-11.99,3.83
			c-4.01,1.96-7.79,4.37-11.89,6.15c-2.3,1-4.67,1.86-7,2.78c-1.42,0.56-2.89,1.12-4.17,1.97c-0.73,0.48-1.33,1.09-1.83,1.8
			c-1.26,1.82-2.22,3.91-3.28,5.85c-1.01,1.85-2.05,3.69-3.2,5.46c-0.87,1.33-1.83,2.84-3.26,3.63c-1.46,0.81-3.29,1.02-4.91,1.28
			c-1.06,0.17-2.13,0.32-3.21,0.42c-0.54,0.05-1.16,0.14-1.68-0.04c-1.14-0.39-1.26-1.99-1.35-3.01c-0.18-2.18-0.02-4.39,0.1-6.57
			c0.25-4.55,0.74-9.09,1.4-13.6c0.64-4.35,1.51-8.67,2.71-12.9c1.22-4.32,2.74-8.57,4.39-12.75c1.7-4.31,3.47-8.59,5.39-12.81
			c1.92-4.22,3.9-8.43,6.14-12.49c2.13-3.85,4.55-7.6,7.73-10.68c2.97-2.88,6.49-5.14,10.1-7.13c2.7-1.49,5.6-3.27,8.77-3.44
			c3.18-0.17,6.23,0.86,9.42,0.28c1-0.18,3.48-1.2,3.4,0.59c-0.06,1.29-0.42,2.5-0.37,3.81c0.18,4.12,2.03,8.19,3.66,11.92
			c0.46,1.06,0.94,2.12,1.43,3.16c0.26,0.56,0.54,1.27,0.99,1.71c1.11,1.09,3.09-1.43,3.79-2.05c1.62-1.44,3.26-2.85,4.9-4.27"/>
	</g>
	<g id="POLYLINE_972_">
		<path class="st37" d="M294.59,151.13c-1.31,2.14-2.3,4.45-2.9,6.89"/>
	</g>
	<g id="POLYLINE_971_">
		<path class="st37" d="M269.87,121.52c2.85,4.32,5.78,8.49,9.09,12.47c3.4,4.1,6.96,8.06,10.59,11.95
			c3.26,3.49,6.6,7.26,10.55,9.99c2.33,1.61,4.79,2.04,7.61,1.82c4.46-0.35,8.74-2.06,13.24-2c3,0.04,5.51,1.17,7.07,3.82
			c1.27,2.16,2.08,4.93,1.85,7.46c-0.14,1.5-0.72,2.92-1.23,4.32c-0.89,2.49-1.77,5-3.06,7.33c-0.85,1.53-1.88,2.92-3.25,4.02
			c-1.69,1.35-3.69,2.26-5.54,3.38c-4.06,2.47-7.3,6.07-10.35,9.66c-3.43,4.03-6.72,8.18-10.21,12.15
			c-3.81,4.32-7.79,8.49-11.71,12.71c-1.45,1.56-2.82,3.2-4.32,4.72c-1.09,1.1-2.35,2.36-3.99,2.44c-2.09,0.1-4.41-0.48-6.44-0.93
			c-2.07-0.47-4.13-1.11-5.99-2.16c-1.77-1-3.32-2.35-4.78-3.75c-0.85-0.81-1.68-1.63-2.59-2.36c-0.67-0.54-0.99-1.01-0.84-1.89
			c0.44-2.6,2.26-4.47,4.33-5.87c1.46-1,2.17-2.6,3.04-4.09c0.85-1.46,1.82-2.79,3.15-3.85c1.66-1.32,3.59-2.23,5.43-3.26
			c2.1-1.17,3.92-2.63,5.53-4.42c3.38-3.76,6.13-8.03,9.62-11.7c3.47-3.65,7.42-6.87,11.77-9.41c1.91-1.12,3.9-2.08,5.93-2.97"/>
	</g>
	<g id="POLYLINE_970_">
		<path class="st37" d="M294.48,82.09c0.34-1.33,0.69-2.66,0.79-4.04c0.09-1.21-0.12-2.5,0.16-3.69c0.13-0.57,0.45-0.98,0.76-1.47
			c0.32-0.51,0.46-1.03,0.66-1.59c0.24-0.68,0.59-1.27,1.04-1.83c0.44-0.56,0.94-1.07,1.36-1.64c0.37-0.49,0.58-1.1,0.99-1.55
			c0.8-0.89,2.22-1.16,3.25-1.66c1.93-0.94,2.99-2.9,5.36-3.02c1-0.05,1.81,0.57,2.82,0.47c0.89-0.09,1.65-0.17,2.54,0.05
			c1.49,0.37,2.94,0.99,4.38,1.5c0.89,0.32,1.82,0.63,2.56,1.25c1.07,0.91,1.9,2.17,2.77,3.25c0.8,1.01,1.59,2.05,2.23,3.16
			c0.97,1.69,1.15,3.19,1.04,5.1c-0.12,2.09-0.21,4.12-1.13,6.04c-0.7,1.45-1.23,2.96-1.88,4.42c-0.44,1-1.12,1.88-1.75,2.76
			c-0.45,0.64-0.92,1.27-1.43,1.87"/>
	</g>
	<g id="POLYLINE_969_">
		<path class="st37" d="M429.75,177.82c-0.21,3.2-0.56,6.29-1.44,9.38c-1,3.51-2.01,6.92-2.42,10.56c-0.22,1.94-0.35,3.89-0.5,5.83
			c-0.12,1.46-0.3,2.93-0.25,4.39c0.09,2.35,1.06,4.5,2.14,6.56c1.84,3.5,4.63,7.21,3.26,11.34c-0.88,2.67-2.77,4.98-4.62,7.05
			c-0.76,0.85-1.65,1.81-2.84,1.95c-1.21,0.14-2.45-0.37-3.64-0.53c-1.98-0.26-4.16-0.09-6.01,0.71c-1.01,0.44-1.84,1.22-2.86,1.6
			c-1.06,0.4-1.89-0.22-2.54-1.04c-1.42-1.79-2.11-4.21-2.52-6.42c-0.39-2.12-0.54-4.23,0.47-6.19c0.99-1.92,2.1-3.76,2.27-5.97
			c0.23-3.04-0.8-6.12-1.49-9.04c-1.66-7.09-2.61-14.32-3.61-21.52c-0.91-6.61,0.14-13.13,2.25-19.43c1.3-3.88,3.12-8.31,7.08-10.13
			c3.96-1.82,9.39-1.11,13.15,0.91c2.9,1.56,5.31,3.78,8.33,5.16c3.05,1.39,6.29,2.41,9.52,3.29c3.42,0.94,6.85,1.41,10.34,1.93
			c0.99,0.15,2.06,0.31,2.96,0.77c1.17,0.61,1.39,1.74,1.58,2.94c0.42,2.59,1.46,4.93,3.14,6.96c1.33,1.62,2.78,3.11,3.37,5.16
			c0.81,2.82,0.48,5.87,0.58,8.76c0.08,2.22,0.3,4.21,2.54,5.24c1.55,0.72,3.03,0.63,4.47-0.26c1.54-0.94,2.13-2.31,2.42-4
			c0.52-3,1.16-6.33,0.85-9.39c-0.27-2.64-1.5-5.04-2.84-7.28c-1.79-3.01-3.73-5.86-5.11-9.1c-0.87-2.04-1.8-3.76-3.48-5.23
			c-2.53-2.22-5.68-3.56-8.74-4.89c-3.29-1.43-6.5-2.94-9.58-4.77c-3.34-1.98-6.52-4.2-9.74-6.37c-1.28-0.86-2.55-1.74-3.88-2.52
			c-0.75-0.44-1.52-0.84-2.32-1.2c-0.47-0.21-1.15-0.41-1.53-0.78c-0.43-0.43-0.27-0.98-0.24-1.54c0.05-0.8,0.06-1.6,0.07-2.4
			c0.03-1.81,0.05-3.63,0.08-5.44"/>
	</g>
	<g id="POLYLINE_968_">
		<path class="st37" d="M413.35,156.59c-0.82-0.79-1.55-1.56-1.89-2.68c-0.43-1.4-0.44-2.93-0.52-4.38
			c-0.24-4.64-0.72-9.26-1.05-13.89c-0.18-2.58-0.2-5.16-0.2-7.75"/>
	</g>
	<g id="POLYLINE_967_">
		<path class="st37" d="M408.97,236.52c-1.67,3-3.55,6.41-3.69,9.92c-0.05,1.21-0.01,2.78,1.19,3.43c1.28,0.69,3.04,0.7,4.45,0.78
			c2.16,0.13,4.33,0.15,6.49,0.12c1.78-0.02,3.62,0.03,5.38-0.28c1.05-0.18,2.15-0.56,2.59-1.64c0.51-1.26,0.22-2.85,0.09-4.14
			c-0.19-1.98-0.16-3.9-0.06-5.88c0.06-1.17,0.08-2.32-0.18-3.47c-0.1-0.46-0.24-0.91-0.36-1.36"/>
	</g>
	<g id="POLYLINE_966_">
		<path class="st37" d="M462.91,180.56c-0.72,1.01-1.42,2.04-2.3,2.92c-1.01,1.01-2.23,1.79-3.37,2.65c-1.78,1.33-3.26,2.81-4.3,4.8
			c-1.37,2.62-2.11,5.55-3.08,8.32c-1.11,3.18-2.37,6.33-3.09,9.64c-0.27,1.25-0.52,2.54-0.54,3.82c-0.01,1.06,0.44,1.65,1.25,2.29
			c0.89,0.7,1.94,1.22,3.05,1.47c2.74,0.6,6.26-0.2,8.16-2.36c0.74-0.84,1.26-1.85,1.97-2.72c0.86-1.07,1.85-2.02,2.65-3.14
			c1.75-2.42,3.06-5.21,4.04-8.02c0.25-0.71,0.47-1.42,0.65-2.14"/>
	</g>
	<g id="POLYLINE_965_">
		<path class="st37" d="M430.42,161.07c1.3,1.86,2.83,3.57,3.95,5.56c0.77,1.37,1.46,2.61,2.99,3.23c1.59,0.64,3.4,0.74,5.08,0.82
			c2.42,0.11,4.85,0.1,7.28,0.14c2.82,0.04,5.62,0.11,8.44-0.04"/>
	</g>
	<g id="POLYLINE_964_">
		<path class="st37" d="M425.74,199.23c2.83,0.92,5.65,1.64,8.63,1.81c3.07,0.18,6.16,0.04,9.2,0.55c1.7,0.29,3.36,0.75,5.02,1.21"
			/>
	</g>
	<g id="POLYLINE_963_">
		<path class="st37" d="M483.71,121.09c-1.29,6.91-3.04,13.73-5.44,20.34c-1.44,3.96-2.98,7.89-4.29,11.89
			c-0.73,2.25-1,3.94-0.7,6.27c0.41,3.14,0.44,5.9-0.63,8.91"/>
	</g>
	<g id="POLYLINE_962_">
		<path class="st37" d="M469.42,171.42c2.79-2.5,5.67-4.92,8.36-7.53c0.76-0.73,1.63-1.52,2.02-2.52c0.38-0.96,0.38-2.08,0.39-3.1
			c0.02-1.94-0.06-3.89-0.25-5.82"/>
	</g>
	<g id="POLYLINE_961_">
		<path class="st37" d="M475.78,184.86c1.38-1.6,2.69-2.58,4.57-3.59c2.6-1.39,5.15-2.8,7.33-4.82c2.28-2.11,4.23-4.63,5.68-7.37
			c1.38-2.61,2.1-5.43,2.6-8.32c0.59-3.41,1-6.88,0.93-10.35"/>
	</g>
	<g id="POLYLINE_960_">
		<path class="st37" d="M451.51,216.6c-0.95,1.77-0.96,3.92-0.36,5.81c0.88,2.8,3.67,3.31,6.17,3.96c2.84,0.74,6.05,1.86,8.96,0.87
			c1.66-0.57,3.11-1.62,4.72-2.32c1.87-0.81,3.88-1.19,5.83-1.78c1.53-0.46,3.02-1.03,4.38-1.89c1.75-1.11,3.25-2.55,4.83-3.86
			c1.09-0.91,2.23-1.74,3.54-2.3c1.6-0.69,3.34-1,4.91-1.78c2.82-1.39,4.64-4.37,6.02-7.06c1.6-3.11,1.42-6.25,1.04-9.66
			c-0.37-3.32-1.32-5.87-3.39-8.49c-2.62-3.32-5.71-6.44-9.16-8.91c-0.82-0.59-1.67-1.13-2.52-1.68"/>
	</g>
	<g id="POLYLINE_959_">
		<path class="st37" d="M450.83,220.84c-1.52,4.15,0.7,8.46,2.69,12.04c1.27,2.29,1.72,4.84,2.07,7.41c0.24,1.8,0.41,3.61,0.63,5.41
			c0.12,0.97,0.22,2.09,0.71,2.96c1.02,1.82,4.15,1.71,5.89,1.85c3.15,0.24,6.37,0.36,9.51,0.04c1.97-0.21,4.15-0.56,4.69-2.79
			c0.43-1.79,0.41-4.01-0.03-5.79c-0.6-2.42-2.46-4.48-3.68-6.61c-1.38-2.41-1.69-4.93-2.35-7.59c-0.21-0.84-0.44-1.67-0.67-2.51"/>
	</g>
	<g id="POLYLINE_958_">
		<path class="st37" d="M445.27,74.17c-0.09,0.33-0.21,1.03-0.65,0.98c-0.29-0.03-0.54-0.63-0.67-0.87
			c-0.43-0.81-0.65-1.72-1.07-2.53c-0.44-0.83-1.47-1.82-2.51-1.6c-0.9,0.19-0.85,1.34-0.79,2.07c0.19,2.31,1.17,4.58,2.21,6.62
			c0.53,1.03,0.94,1.48,2.14,1.39c1.26-0.09,0.9,1.04,0.91,1.97c0.02,2.1,0.79,4.17,1.7,6.03c0.97,1.99,2.23,3.9,3.99,5.28
			c2.79,2.19,6.82,2.88,10.22,1.93c3.51-0.99,5.96-3.84,7.3-7.13c0.47-1.16,0.83-2.36,1.08-3.59c0.09-0.41,0.13-0.89,0.3-1.28
			c0.22-0.53,0.46-0.51,0.96-0.66c1.06-0.33,1.39-1.85,1.76-2.75c0.58-1.43,1.34-2.74,2.08-4.09c0.35-0.63,1-2.29,0.02-2.75
			c-0.96-0.45-1.67,1.31-2,1.88c-0.17,0.28-1.27,2.27-1.64,1.76c-0.16-0.22,0.03-1,0.06-1.26c0.08-0.59,0.18-1.18,0.27-1.77
			c0.29-1.92,0.59-3.83,0.87-5.75c0.13-0.88,0.41-2.2-0.41-2.82c-1.4-1.05-3.39,0.3-4.91-0.28c-1.01-0.38-1.8-1.17-2.86-1.42
			c-1-0.24-2.05-0.11-3.07-0.27c-1.95-0.32-3.7-1.45-5.65-1.69c-1.1-0.13-1.79,0.53-2.79,0.8c-1.05,0.29-2.18,0.14-3.25,0.29
			c-1.39,0.19-1.51,1.18-1.77,2.41c-0.36,1.62-0.64,3.26-0.94,4.9C445.88,71.35,445.66,72.78,445.27,74.17z"/>
	</g>
	<g id="POLYLINE_957_">
		<path class="st37" d="M440.44,70.14c-0.63-2.62-0.69-5.07-0.32-7.74c0.3-2.17,0.59-4.59,1.64-6.54c0.56-1.03,1.39-1.78,2.39-2.38
			c1.15-0.69,2.41-1.16,3.57-1.82c1.09-0.62,2.1-1.37,3.26-1.86c5.16-2.2,10.4-1.3,15.43,0.76c1.87,0.77,3.85,1.57,5.31,3.03
			c1.5,1.5,2.47,3.52,3.16,5.49c0.8,2.27,1.31,4.86,1.06,7.27c-0.2,1.89-1.37,3.4-1.74,5.23c-0.1,0.51-0.12,1.03-0.15,1.54"/>
	</g>
	<g id="POLYLINE_956_">
		<path class="st37" d="M444.9,83.06c-0.32,2.76-0.72,5.56-0.9,8.33c-0.14,2.08,0.03,4.13,0.64,6.12c1,3.31,2.98,6.53,5.88,8.5
			c2.32,1.58,5.19,2.3,7.99,2c2.67-0.28,4.98-1.56,6.49-3.79c2.57-3.81,2.59-8.62,2.67-13.04c0.01-0.67,0.01-1.34,0-2.01"/>
	</g>
	<g id="POLYLINE_955_">
		<path class="st37" d="M478.07,142.03c0.03,2.08,0.21,4.16,0.34,6.24c0.07,1.05-0.05,2.68,0.55,3.62c0.63,1,2.92,0.83,3.95,0.85
			c1.73,0.04,3.46-0.13,5.17-0.37c3.54-0.5,6.97-1.35,10.36-2.46c0.93-0.31,2.88-0.52,3.38-1.53c0.44-0.88,0.02-2.25-0.15-3.15
			c-1.62-8.74-3.27-17.47-4.9-26.21c-0.56-3.01-1.11-6.06-2.11-8.96c-0.3-0.86-0.64-1.74-1.15-2.5c-0.87-1.3-2.26-1.98-3.59-2.72
			c-6.74-3.74-13.57-7.38-20.04-11.59c-0.75-0.49-1.49-0.99-2.23-1.49"/>
	</g>
	<g id="POLYLINE_954_">
		<path class="st37" d="M433.41,112.49c-1.24,3.97-1.94,7.92-2.37,12.06c-0.21,2.06-0.3,4.14-0.6,6.18
			c-0.2,1.35-0.63,2.41-2.18,2.16c-1.69-0.28-3.35-1.07-4.95-1.65c-1.89-0.68-3.82-1.22-5.79-1.65c-2.12-0.46-4.27-0.82-6.39-1.31
			c-0.9-0.21-2.69-0.45-2.91-1.57c-0.21-1.09,0.63-2.52,1.02-3.46c0.79-1.91,1.49-3.84,2.09-5.82c1.29-4.25,2.31-8.57,3.57-12.83
			c1.01-3.39,2.14-6.96,4.39-9.76c1.28-1.59,2.93-2.86,4.79-3.69c2.81-1.26,5.81-1.02,8.81-1.28c1.62-0.14,3.18-0.47,4.73-0.98
			c1.45-0.47,2.99-1.2,4.55-1.25c0.74-0.02,1.48,0.17,2.21,0.31"/>
	</g>
</g>
<g id="AG-OUTLINE">
	<g id="POLYLINE_953_">
		<path class="st40" d="M444.38,87.97c-1.25-0.25-2.33-0.41-3.57-0.09c-1.59,0.41-3.11,1.07-4.71,1.48
			c-3.09,0.8-6.29,0.37-9.39,0.97c-4.06,0.8-7.26,3.6-9.13,7.22c-1.63,3.13-2.57,6.61-3.49,10c-1.09,3.98-2.07,8.01-3.39,11.93
			c-0.61,1.8-1.4,3.52-2.06,5.31c-0.27,0.73-0.73,1.82-0.12,2.5c0.27,0.3,0.97,0.34,1.16,0.61c0.15,0.2,0.02,0.91,0.02,1.17
			c0,0.62,0,1.25,0,1.87c0.01,1.69,0.09,3.38,0.22,5.06c0.31,4.05,0.74,8.09,0.95,12.15c0.12,2.37-0.15,5.43,1.47,7.4
			c0.31,0.38,0.67,0.71,1.02,1.05c-4.07,1.41-6.1,5.43-7.5,9.23c-2.42,6.56-3.65,13.56-2.71,20.52c1.02,7.58,2.07,15.17,3.85,22.62
			c0.67,2.8,1.63,5.81,1.19,8.72c-0.34,2.26-1.72,4.01-2.55,6.08c-0.93,2.31-0.31,5.18,0.36,7.47c0.36,1.25,0.83,2.49,1.51,3.61
			c0.14,0.23,0.29,0.46,0.46,0.68c0.2,0.26,0.8,0.66,0.91,0.93c0.17,0.41-0.86,1.87-1.09,2.33c-1.26,2.53-2.55,5.28-2.51,8.17
			c0.01,1.15,0.17,2.42,1.31,2.97c1.07,0.51,2.4,0.58,3.56,0.67c3.67,0.29,7.44,0.3,11.11,0.06c2.1-0.13,4.2-0.55,4.36-3.07
			c0.09-1.45-0.18-2.9-0.28-4.34c-0.11-1.69,0.04-3.37,0.1-5.06c0.03-0.92,0-1.82-0.19-2.73c-0.08-0.36-0.25-0.74-0.29-1.11
			c-0.04-0.42,0.01-0.42,0.31-0.71c0.58-0.57,1.11-1.2,1.63-1.83c2.52-3.02,4.96-6.66,3.65-10.71c-1.06-3.29-3.27-6.08-4.54-9.29
			c-0.85-2.15-0.93-4.2-0.75-6.5c0.16-2.03,0.32-4.06,0.49-6.09c2.83,0.92,5.65,1.64,8.63,1.81c3.07,0.18,6.16,0.04,9.2,0.55
			c1.7,0.29,3.36,0.75,5.02,1.21c-1.08,3.09-2.18,6.32-2.34,9.62c-0.06,1.21,0.35,1.87,1.29,2.6c0.52,0.4,1.09,0.74,1.69,1
			c0.72,0.31,1.49,0.5,2.27,0.57c-0.32,0.59-0.56,1.2-0.67,1.86c-0.13,0.85,0.08,1.76-0.08,2.57c-0.28,1.4-0.53,2.51-0.32,3.96
			c0.44,3.07,1.81,5.49,3.24,8.17c1.28,2.4,1.65,5.13,2,7.79c0.22,1.68,0.36,3.37,0.58,5.05c0.13,0.98,0.25,2.18,0.89,2.98
			c1.26,1.59,4.45,1.42,6.19,1.54c3.17,0.22,6.44,0.35,9.61-0.08c2.03-0.27,3.76-0.87,4.16-3.13c0.31-1.78,0.33-3.94-0.2-5.68
			c-0.77-2.55-2.75-4.66-3.97-7c-1.3-2.49-1.52-5.3-2.24-7.98c-0.09-0.34-0.43-0.98-0.36-1.3c0.05-0.23,0.34-0.3,0.6-0.42
			c0.49-0.22,0.99-0.4,1.5-0.56c1.54-0.5,3.13-0.85,4.68-1.33c2.41-0.74,4.45-1.9,6.39-3.51c1.91-1.58,3.69-3.43,5.99-4.43
			c2.05-0.89,4.36-1.19,6.19-2.53c2.03-1.49,3.44-3.76,4.61-5.95c1.04-1.94,1.57-3.83,1.55-6.04c-0.03-2.7-0.23-5.71-1.15-8.27
			c-0.8-2.2-2.34-4.08-3.85-5.82c-2.07-2.38-4.33-4.64-6.82-6.57c-1.14-0.88-2.33-1.67-3.54-2.44c2.92-2.37,5.39-5.45,7.09-8.81
			c1.75-3.45,2.39-7.32,2.88-11.12c0.27-2.08,0.45-4.18,0.45-6.27c0-0.19-0.06-0.47,0-0.65c0.11-0.37-0.05-0.12,0.25-0.32
			c0.51-0.35,1.42-0.47,2-0.65c0.57-0.19,1.17-0.32,1.72-0.55c2.11-0.86,0.67-4.61,0.35-6.3c-1.72-9.19-3.27-18.43-5.19-27.58
			c-0.55-2.62-1.05-5.84-2.75-8.02c-0.99-1.27-2.58-1.97-3.96-2.72c-1.89-1.04-3.8-2.04-5.68-3.1c-3.67-2.06-7.3-4.18-10.9-6.37
			c-0.85-0.52-1.69-1.04-2.53-1.58c-0.41-0.26-0.81-0.53-1.22-0.8c-0.36-0.24-1.12-0.54-1.33-0.9c-0.13-0.23-0.01-1.02,0-1.31
			c0-0.46-0.07-0.98,0.05-1.42c0.19-0.7,0.58-1.38,0.81-2.07c0.27-0.83,0.47-1.68,0.65-2.53c0.08-0.4,0.13-1.07,0.43-1.39
			c0.38-0.4,0.99-0.23,1.4-0.67c0.42-0.45,0.64-1.16,0.86-1.71c0.72-1.79,1.74-3.38,2.54-5.12c0.25-0.55,0.44-1.24,0.24-1.84
			c-0.1-0.29-0.32-0.35-0.46-0.56c-0.16-0.25-0.11-0.68-0.07-1.06c0.25-2.16,1.72-3.92,1.85-6.14c0.18-2.99-0.62-6.14-1.9-8.83
			c-0.86-1.81-1.99-3.49-3.68-4.61c-2.7-1.8-6.2-3.02-9.36-3.68c-2.95-0.61-5.95-0.44-8.82,0.5c-1.56,0.51-2.82,1.32-4.21,2.16
			c-1.32,0.79-2.79,1.3-4.09,2.13c-1.14,0.72-1.97,1.68-2.49,2.93c-1.16,2.8-1.59,6.32-1.59,9.33c0,1.45,0.26,2.86,0.6,4.27
			c-2.29,0.27,0.19,6.21,0.6,7.13c0.41,0.93,0.99,2.91,2.22,3.01c0.66,0.05,1.39-0.41,1.59,0.45c0.12,0.52-0.02,1.12-0.01,1.65
			C444.9,84.23,444.62,86.13,444.38,87.97z"/>
	</g>
	<g id="POLYLINE_952_">
		<path class="st40" d="M289.04,96.79c-0.39-0.78-2.13-0.16-2.74-0.03c-0.86,0.18-1.72,0.31-2.59,0.34
			c-2.38,0.09-4.71-0.57-7.08-0.52c-1.69,0.04-3.28,0.54-4.81,1.23c-2.68,1.2-5.28,2.69-7.76,4.25c-4.95,3.11-8.97,7.02-12.12,11.96
			c-3.33,5.22-5.96,10.91-8.5,16.54c-2.55,5.65-4.94,11.4-7.04,17.23c-2.08,5.78-3.76,11.66-4.82,17.72
			c-1.08,6.16-1.73,12.41-2.02,18.66c-0.1,2.07-0.35,4.45,0.28,6.47c0.14,0.44,0.33,0.89,0.72,1.16c0.18,0.12,0.37,0.18,0.58,0.22
			c0.45,0.09,0.42-0.01,0.69,0.37c0.65,0.92,1.11,1.99,1.74,2.93c2.82,4.14,6.89,8.02,11.6,9.9c5.19,2.07,10.76,0.55,15.95-0.7
			c1.49-0.36,2.98-0.74,4.43-1.22c-1.37,1.22-2.28,2.8-3.18,4.37c-0.41,0.72-0.81,1.47-1.34,2.11c-0.61,0.74-1.4,1.15-2.17,1.68
			c-1.18,0.82-2.01,2.02-2.63,3.3c-0.22,0.45-0.42,0.92-0.56,1.4c-0.15,0.53,0.03,1.41-0.14,1.76c-0.26,0.52-1.25,1.05-1.68,1.52
			c-0.74,0.81-1.37,1.71-1.99,2.61c-1.45,2.12-2.77,4.33-3.97,6.59c-1.5,2.81-3.67,6.64-0.7,9.23c1.71,1.5,3.84,2.58,5.84,3.64
			c2.59,1.37,5.21,2.66,7.85,3.94c4.57,2.21,9.14,4.37,14.23,4.99c2.41,0.29,4.83,0.31,7.25,0.31c2.99,0,6,0.12,8.99-0.05
			c1.42-0.08,3.27-0.23,3.69-1.88c0.31-1.22,0.09-2.71-0.23-3.91c-0.47-1.81-1.56-2.82-3.31-3.36c-2.18-0.67-4.48-0.98-6.54-2
			c-3.57-1.76-6.26-5.25-8.02-8.73c-0.5-0.99-0.92-2.01-1.27-3.06c2.06,0.13,3.51-1.39,4.84-2.76c2.45-2.54,4.75-5.23,7.16-7.8
			c0.88-0.94,1.75-1.88,2.63-2.81c0.39-0.42,0.73-0.86,1.21-1.16c1.56-0.99,3.37-1.65,4.96-2.62c2.87-1.76,5.45-3.97,8.05-6.09
			c5.53-4.5,10.88-8.9,17.75-11.17c3.32-1.1,6.74-1.86,10.05-2.99c2.45-0.83,4.94-1.86,6.77-3.74c0.76-0.78,1.39-1.68,1.95-2.61
			c0.21-0.36,0.41-0.72,0.6-1.09c0.15-0.28,0.4-1.11,0.66-1.27c0.16-0.1,0.63,0.05,0.87,0.06c2.24,0.15,3.22-1.3,3.84-3.24
			c0.2-0.62,0.36-1.25,0.49-1.89c1.81,1.39,3.36,3.07,4.54,5.02c1.52,2.53,2.18,5.27,2.96,8.09c0.88,3.17,2.07,6.26,3.14,9.37
			c0.55,1.59,1.07,3.2,1.61,4.79c0.3,0.88,0.6,1.81,1.1,2.61c1.29,2.08,3.47,0.74,4.87-0.51c1.64-1.47,2.76-3.41,3.57-5.44
			c0.75-1.88,1.45-3.99,1.36-6.05c-0.06-1.65-0.67-3.24-1.38-4.72c-1.34-2.76-3.36-4.98-5.04-7.52c-1.75-2.64-3.17-5.45-5.06-8.01
			c-4.01-5.43-8.58-10.5-13.07-15.53c-1.02-1.15-2.31-2.22-3.19-3.47c-0.66-0.93-1.07-2.03-1.79-2.94
			c-0.94-1.18-2.12-2.16-3.47-2.83c-1.15-0.58-2.4-0.96-3.64-1.28c-0.74-0.2-1.4-0.3-2.03-0.74c-0.63-0.45-1.25-0.91-1.86-1.38
			c-2.6-2-5.07-4.17-7.42-6.47c-2.22-2.17-4.34-4.45-6.26-6.9c-1.03-1.32-1.99-2.68-2.92-4.08c-0.37-0.57-0.97-1.21-1.03-1.86
			c-0.05-0.55,0.08-1.06-0.07-1.61c-0.6-2.17-3.26-3.18-4.67-4.76c-1.28-1.43-1.84-3.32-2.93-4.87c-0.71-1-1.59-1.86-2.46-2.72
			c0.42-0.37,0.83-0.9,1.36-1.01c0.21-0.04,0.47,0,0.69-0.02c0.73-0.05,1.45-0.2,2.15-0.41c1.25-0.38,2.35-0.98,3.23-1.97
			c0.72-0.8,1.35-1.64,2.14-2.38c1.04-0.96,2.13-1.86,3.1-2.89c1.37-1.45,2.36-3.12,3.14-4.94c0.51-1.18,0.93-2.39,1.34-3.6
			c0.46-1.32,0.82-3.06,1.6-4.22c1.28-1.93,2.7-3.51,3.54-5.69c0.71-1.82,1.82-3.57,2.18-5.51c0.36-1.91,0.6-4.12,0.36-6.05
			c-0.21-1.69-1.24-3.22-2.22-4.57c-0.84-1.16-1.77-2.26-2.68-3.37c-0.62-0.75-1.2-1.44-2.08-1.89c-1-0.5-2.11-0.82-3.16-1.19
			c-1.03-0.37-2.07-0.81-3.15-1.03c-0.8-0.17-1.49-0.06-2.28,0.02c-0.88,0.09-1.52-0.39-2.36-0.47c-2.06-0.2-3.29,1.27-4.75,2.39
			c-0.89,0.68-1.98,1.01-2.99,1.47c-1.17,0.53-1.47,1.21-2.17,2.21c-0.56,0.8-1.29,1.48-1.85,2.29c-0.45,0.65-0.64,1.3-0.89,2.03
			c-0.32,0.9-1.04,1.56-1.23,2.52c-0.21,1.09-0.06,2.23-0.12,3.33c-0.06,1.09-0.28,2.16-0.54,3.22c-0.06,0.26-0.09,0.85-0.27,1.04
			c-0.08,0.09-0.45,0.17-0.58,0.25c-0.29,0.18-0.54,0.44-0.77,0.7c-0.96,1.07-1.41,2.4-1.41,3.82c0,0.86,0.11,1.73,0.29,2.57
			c0.15,0.74,0.64,1.65,0.43,2.36c-0.37,1.27-1.13,2.54-1.95,3.56C290.05,95.88,289.56,96.35,289.04,96.79z"/>
	</g>
	<g id="POLYLINE_951_">
		<path class="st40" d="M108.3,101.12c-4.1,2.9-7.83,6.17-11.56,9.51c-3.64,3.27-7.25,6.58-10.7,10.04
			c-3.21,3.22-6.3,6.63-8.86,10.4c-2.55,3.77-4.44,7.92-5.8,12.27c-1.46,4.65-2.44,9.43-3.51,14.18c-1.06,4.71-2.01,9.52-3.8,14.02
			c-1.53,3.83-3.79,7.4-3.97,11.63c-0.1,2.27,0.2,4.56,0.66,6.79c0.35,1.68,0.71,3.52,1.51,5.06c0.24,0.46,0.54,0.89,0.93,1.23
			c0.15,0.13,0.5,0.26,0.59,0.41c0.1,0.17,0.05,0.53,0.06,0.74c0.05,1.2,0.17,2.41,0.43,3.59c0.29,1.29,0.76,2.54,1.41,3.7
			c1.96,3.48,5.3,6.39,8.89,8.09c0.92,0.44,1.88,0.79,2.87,1.03c-2.29,1.36-4.66,2.29-7.08,3.39c-1.5,0.68-3.55,1.61-3.96,3.39
			c-0.27,1.17,0.19,2.42,0.65,3.47c1.03,2.34,2.52,4.49,4,6.58c1.67,2.35,3.61,4.6,4.88,7.21c0.9,1.85,1.22,3.84,1.68,5.83
			c0.63,2.77,1.74,5.11,4.59,6c2.04,0.63,4.23,0.68,6.35,0.75c3.13,0.1,6.28,0.33,9.41,0.23c2.43-0.08,5.41-0.4,6.62-2.86
			c0.47-0.96,0.55-2.05,0.18-3.06c-0.73-1.97-2.43-3.61-3.54-5.37c-0.34-0.53-0.66-1.07-0.98-1.62c-0.2-0.34-0.4-0.67-0.59-1.02
			c-0.23-0.42-0.21-0.26-0.04-0.54c0.21-0.34,0.82-0.67,1.12-0.92c0.34-0.29,0.68-0.57,1.05-0.83c1.63-1.15,3.6-1.73,5.5-2.26
			c2.78-0.78,5.55-1.52,8.28-2.47c2.77-0.97,5.51-2.05,8.27-3.06c5.39-1.97,10.83-3.31,16.47-4.35c1.4-0.26,2.81-0.52,4.21-0.8
			c-0.45,0.95-0.76,2.02-0.62,3.07c0.16,1.2,0.54,2.24,0.47,3.48c-0.04,0.77-0.16,1.54-0.34,2.29c-0.05,0.21-0.14,0.98-0.32,1.1
			c-0.14,0.09-0.77-0.01-0.99,0.05c-1.58,0.4-2.11,2.55-2.54,3.89c-0.72,2.27-1.24,4.61-1.7,6.95c-0.35,1.82-0.82,3.76-0.74,5.63
			c0.15,3.47,4.46,2.85,6.92,2.8c5.93-0.11,11.86-0.24,17.79-0.29c5.05-0.04,10.1,0.19,15.16,0.19c2.68,0,5.79-0.05,8-1.82
			c1.5-1.21,1.7-2.67,1.47-4.45c-0.18-1.39-0.44-2.88-1.11-4.13c-0.85-1.59-2.38-1.55-3.97-1.53c-2.4,0.03-4.82-0.01-7.16-0.57
			c-4.03-0.95-7.29-3.66-11.13-5.06c-0.62-0.23-1.26-0.41-1.91-0.51c1.39-2.44,2.91-5.21,3.51-7.97c0.35-1.62-0.21-3.06-0.28-4.68
			c-0.12-2.45,1.06-4.88,1.66-7.2c0.87-3.36,0.89-6.81,0.94-10.26c0.06-3.77,0.33-7.46,0.88-11.19c3.39,0.54,6.79,0.15,10.05-0.9
			c1.95-0.63,3.57-1.6,4.62-3.41c1.35-2.33,2.23-5.33,2.32-8.02c0.07-2.18-0.84-3.66-3-4.19c-1.67-0.41-3.44-0.47-5.15-0.58
			c-2.06-0.13-4.15-0.14-6.18,0.24c0.51-4.34,0.67-8.61,0.29-12.97c1.73,0.06,5.2-0.25,6.17,1.68c0.45,0.9,0.58,1.95,1,2.88
			c0.37,0.83,0.82,1.62,1.34,2.36c2.24,3.24,6.02,5.79,10.08,5.72c4.72-0.08,5.23-6.01,4.95-9.6c-0.14-1.88-0.64-3.86-2.31-4.96
			c-2.04-1.36-4.68-1.6-6.87-2.7c-2.98-1.5-5.72-3.44-8.75-4.86c-3.12-1.46-6.36-2.64-9.63-3.7c-0.82-0.27-1.65-0.52-2.47-0.78
			c0.88-2.27,0.95-4.91-1.73-5.95c-1.43-0.56-3.1-0.63-4.36-1.57c-0.69-0.52-1.21-1.24-1.92-1.74c-0.48-0.34-1.03-0.58-1.57-0.8
			c-1.65-0.66-2.87-0.97-3.84-2.52c-0.9-1.43-2.51-1.47-3.92-2.17c-1.4-0.69-2.21-1.98-2.81-3.37c-0.93-2.17-1.42-4.49-2.53-6.58
			c-0.61-1.14-1.43-2.17-2.02-3.31c-0.44-0.84-0.68-1.8-1.1-2.65c-0.51-1.04-1.1-2.06-1.73-3.03c-0.3-0.46-0.62-0.91-0.96-1.34
			c-0.14-0.18-0.4-0.41-0.36-0.59c0.03-0.15,0.39-0.42,0.5-0.52c1.69-1.69,3.75-3.08,5.76-4.37c0.63-0.4,1.02-0.68,1.77-0.66
			c0.55,0.01,1.1,0.02,1.64-0.01c0.76-0.04,1.53-0.12,2.28-0.31c1.26-0.32,2.37-0.99,3.02-2.14c0.76-1.35,0.54-2.58,0.08-3.97
			c-0.25-0.77-0.22-1.45-0.2-2.25c0.02-0.82-0.3-1.57-0.32-2.37c-0.01-0.62,0.15-1.75,0.39-2.33c0.3-0.72,1.28-0.69,1.92-0.99
			c1.78-0.84,0.8-3.07-0.07-4.26c-0.96-1.3-2.03-2.43-2.72-3.92c-0.66-1.44-0.7-2.97-1.05-4.5c-0.44-1.89-1.39-3.66-2.4-5.3
			c-0.58-0.95-1.22-1.87-1.94-2.72c2.42-1.05,2.12-4.5,0.42-6.02c-0.51-0.46-1.13-0.68-1.79-0.83c-0.68-0.15-1.64-0.14-2.14-0.7
			c-0.46-0.51-0.39-1.3-0.73-1.88c-0.36-0.62-1.04-0.83-1.7-0.93c-0.93-0.14-1.9-0.04-2.82,0.16c-0.81,0.18-1.39,0.36-2.16-0.03
			c-0.68-0.34-1.28-0.76-2.04-0.94c-1.66-0.39-3.49,0.14-5.13,0.34c-1.45,0.18-2.81,0.17-4.24-0.12c-1.28-0.26-2.87-0.81-4.07,0
			c-1.25,0.85-1.9,2.43-2.82,3.58c-0.63,0.79-1.36,1.29-2.24,1.77c-1.37,0.74-1.94,1.47-1.93,3.03c0.01,1.4,0.3,2.94-0.64,4.13
			c-0.53,0.67-1.4,1.13-1.78,1.92c-0.31,0.63-0.17,1.35-0.13,2.02c0.15,3.04-3.46,4.67-3.61,7.7c-0.05,0.99-0.08,1.99-0.12,2.98
			c-0.03,0.64-0.09,1.44,0.26,2.02c0.38,0.63,1.2,0.96,1.7,1.51c0.31,0.34,0.59,0.74,0.96,1.03c0.33,0.27,0.75,0.36,1.1,0.6
			c0.67,0.47,1.96,2.9,1.38,3.72c-0.19,0.27-0.73,0.49-0.97,0.77c-0.27,0.31-0.49,0.65-0.69,1c-0.24,0.41-0.47,0.85-0.62,1.3
			C107.95,99.99,107.97,100.55,108.3,101.12z"/>
	</g>
	<g id="POLYLINE_950_">
		<path class="st40" d="M590.75,94.05c-1.7,0.35-3.41,1.1-4.9,1.99c-1.57,0.95-2.83,2.32-4.41,3.28c-4.23,2.59-8.71,4.5-12.16,8.2
			c-3.15,3.39-5.11,7.6-6.77,11.87c-2.12,5.44-4.33,10.85-6.34,16.33c-1.63,4.45-2.27,9.13-3.68,13.65
			c-0.69,2.22-1.69,4.26-2.91,6.24c-1.32,2.13-2.84,4.16-3.94,6.42c-0.9,1.85-1.42,3.84-1.82,5.85c-0.53,2.65-1.09,5.27-1.69,7.9
			c-0.31,1.36-0.9,3.37-0.27,4.72c0.16,0.35,0.62,0.54,0.76,0.82c0.18,0.36-0.11,1.46-0.14,1.9c-0.09,1.23-0.13,2.47-0.12,3.7
			c0.07,4.97,0.78,10.1,2.23,14.86c0.93,3.07,2.29,6.28,4.77,8.43c0.48,0.42,1.01,0.8,1.56,1.13c-2.11,0.65-4.04,1.87-5.33,3.69
			c-1.17,1.65-1.77,3.72-1.41,5.73c0.61,3.44,3.27,6.21,4.58,9.38c1.71,4.14,1.41,8.74,2.76,12.97c0.88,2.74,2.36,5.19,5.16,6.24
			c3.9,1.47,8.64,1.72,12.77,1.54c1.37-0.06,3.12-0.13,4.3-0.94c1.41-0.96,0.81-2.92,0.59-4.3c-0.12-0.73-0.22-1.48-0.56-2.14
			c-0.4-0.78-1.1-1.36-1.75-1.94c-0.82-0.74-1.68-1.5-2.18-2.51c-1.05-2.12-0.53-4.72-0.01-6.89c0.53-2.23,1.33-4.41,1.75-6.67
			c0.23-1.28,0.26-2.74-0.9-3.6c-0.52-0.38-1.15-0.54-1.78-0.59c0.82-0.43,1.66-0.81,2.52-1.13c0.63-0.24,0.75-0.17,1.36,0.05
			c0.34,0.12,0.69,0.18,1.05,0.17c1.7-0.06,3.46-0.91,5.07-1.37c4.47-1.3,9.01-2.11,13.65-2.55c5.03-0.48,10.08-0.7,15.11-1.09
			c4.43-0.34,9.1-0.69,13.26-2.35c3.57-1.42,6.25-4.06,8.12-7.38c0.27-0.48,0.52-0.97,0.76-1.47c0.55,2.17,1.09,4.35,1.64,6.52
			c0.17,0.66,0.33,1.33,0.55,1.98c0.08,0.24,0.15,0.52,0.31,0.72c0.17,0.22,0.51,0.26,0.65,0.43c0.37,0.45,0.32,2.32,0.38,2.89
			c0.11,1.04,0.22,2.07,0.31,3.11c0.19,1.94,0.35,3.88,0.46,5.83c0.12,2.07,0.08,4.06-0.18,6.12c-1.92-1.63-3.41,6.4-3.57,7.26
			c-0.41,2.12-0.72,4.25-1,6.39c-0.14,1.1-0.59,2.84,0.35,3.7c0.91,0.84,2.65,0.92,3.8,1.05c2.09,0.25,4.2,0.35,6.3,0.43
			c3.73,0.14,7.47,0.16,11.21,0.14c4.7-0.03,9.4-0.01,14.1-0.1c2.37-0.05,5.8-0.05,6.63-2.82c0.47-1.57,0.36-3.88-0.87-5.05
			c-0.9-0.85-2.24-1.2-3.39-1.55c-1.84-0.56-3.69-1.09-5.42-1.95c-2.89-1.45-5.57-3.68-7.54-6.25c-0.81-1.06-1.32-2.23-1.98-3.38
			c-0.77-1.35-1.93-1.86-3.46-1.83c-0.19,0-0.4,0.05-0.59,0.04c-0.48-0.03-0.38,0.05-0.48-0.54c-0.2-1.13-0.39-2.27-0.58-3.41
			c-0.33-2-0.62-4-0.89-6.01c-0.13-0.95-0.25-1.91-0.36-2.86c-0.07-0.59-0.13-1.18-0.2-1.76c-0.04-0.35-0.34-1.36-0.19-1.69
			c0.09-0.18,0.48-0.31,0.6-0.55c0.13-0.23,0.15-0.52,0.18-0.77c0.08-0.66,0.07-1.34,0.06-2.01c-0.06-4.57-0.38-9.15-0.58-13.72
			c-0.17-3.81-0.29-7.62-0.66-11.42c-0.4-4.14-1.17-8.23-1.74-12.34c-0.3-2.14-0.48-4.29-0.7-6.43c-0.05-0.44-0.1-0.88-0.15-1.32
			c-0.03-0.2-0.11-0.46-0.09-0.66c0.05-0.39-0.05-0.16,0.21-0.37c0.29-0.24,0.79-0.36,1.12-0.56c1.69-1.02,3.31-2.73,3.39-4.79
			c0.04-0.96-0.18-1.92-0.41-2.84c-0.38-1.59-0.55-3.36-1.18-4.89c-0.57-1.39-1.86-1.81-3.19-2.21c-2.16-0.66-4.32-1.36-6.5-1.94
			c-2.35-0.63-5.62-1.71-8.04-0.74c-1.49,0.6-2.86,1.64-4.27,2.4c-0.47-4.92-1.42-9.64-2.57-14.44c-0.89-3.69-1.77-7.37-2.66-11.06
			c-0.16-0.69-0.33-1.37-0.48-2.06c-0.19-0.87-0.37-1.73-0.56-2.6c-0.15-0.7-0.54-1.63-0.51-2.35c0.03-0.63,0.5-1.24,0.5-1.98
			c0-0.5-0.08-1.01-0.19-1.5c-0.52-2.47-1.44-4.91-2.25-7.29c-0.31-0.91-0.67-1.8-1.13-2.65c-0.11-0.19-0.22-0.38-0.33-0.57
			c-0.07-0.12-0.24-0.29-0.26-0.43c-0.04-0.33-0.07,0.02,0.08-0.28c0.21-0.4,0.72-0.98,1.06-1.3c0.7-0.67,1.75-0.93,2.6-1.35
			c0.95-0.47,1.81-1.11,2.32-2.06c0.91-1.69,0.48-3.93-0.35-5.57c-0.1-0.2-0.21-0.39-0.32-0.58c0.56-0.14,0.91-0.78,1.18-1.25
			c0.57-0.97,1-2.02,1.45-3.04c0.39-0.87,0.91-1.77,1.15-2.7c0.09-0.34,0.13-0.69,0-1.02c-0.14-0.37-0.54-0.55-0.61-0.84
			c-0.11-0.49,0.32-1.46,0.46-1.97c0.14-0.5,0.29-1,0.47-1.49c0.32-0.9,0.68-1.77,0.89-2.71c0.43-1.91,0.43-3.99,0.03-5.91
			c-0.19-0.93-0.51-1.83-0.99-2.66c-0.28-0.48-0.51-0.71-0.46-1.26c0.05-0.65,0.11-1.32-0.2-1.92c-0.33-0.64-0.99-0.96-1.5-1.43
			c-0.6-0.55-0.96-1.28-1.44-1.93c-0.89-1.22-2.34-1.06-3.52-1.87c-1.4-0.95-2.53-2.1-4.35-1.55c-0.35,0.1-0.68,0.25-0.99,0.44
			c-0.15,0.09-0.3,0.19-0.45,0.3c-0.43,0.33-0.42,0.49-0.98,0.31c-1.41-0.44-2.78-0.76-4.25-0.37c-1.31,0.36-2.51,1.11-3.58,1.92
			c-3.53,2.68-5.99,6.37-7.35,10.57c-0.51,1.58-0.84,3.19-0.82,4.86c0,0.24,0.04,0.49,0.02,0.73c-0.04,0.46-0.01,0.24-0.28,0.53
			c-0.28,0.31-0.49,0.63-0.65,1.02c-0.15,0.38-0.24,0.78-0.31,1.18c-0.34,1.95-0.42,4.21-0.12,6.17c0.11,0.72,0.31,1.46,1.14,1.53
			c0.73,0.06,1.6-0.42,1.69,0.62c0.08,0.88-0.24,1.82-0.32,2.7c-0.05,0.57,0.08,1.21,0,1.77c-0.18,1.19-1.22,2.52-1.93,3.44
			C591.82,93.14,591.32,93.6,590.75,94.05z"/>
	</g>
	<g id="POLYLINE_949_">
		<path class="st40" d="M866.84,101.92c-2.51,0.48-4.9,1.58-6.45,3.67c-2.49,3.34-3.15,8.03-3.79,12.03
			c-0.87,5.46-1.35,10.98-1.85,16.48c-0.48,5.29-0.87,10.59-0.99,15.9c-0.06,2.56-0.04,5.12,0.16,7.67
			c0.09,1.08,0.48,2.37,0.34,3.43c-0.12,0.94-0.59,1.95-0.97,2.81c-0.61,1.37-1.37,2.77-2.43,3.85c-1.22,1.24-2.81,1.62-3.36,3.43
			c-0.57,1.87-0.56,3.86-1.13,5.73c-0.4,1.29-1.15,2.38-1.92,3.48c-0.94,1.32-1.82,2.76-1.05,4.38c0.39,0.82,1.03,1.54,1.73,2.09
			c0.13,0.11,0.33,0.2,0.44,0.32c0.28,0.3,0.21,0.45,0.2,0.9c-0.01,1.04,0.1,2.07,0.3,3.09c0.39,1.95,1.1,3.84,2.07,5.57
			c2.18,3.92,5.72,7.28,9.62,9.46c0.94,0.52,1.91,0.98,2.92,1.36c0.18,0.07,0.63,0.14,0.75,0.27c0.15,0.17,0.05,0.43-0.01,0.7
			c-0.09,0.44-0.21,0.88-0.34,1.31c-0.28,0.9-0.7,1.76-0.97,2.67c-0.09,0.31-0.17,0.63-0.2,0.96c-0.05,0.58-0.02,0.66-0.45,1.14
			c-1.96,2.22-2.61,4.55-2.81,7.49c-0.35,5.11,0.11,10.33,0.51,15.43c0.21,2.74,0.44,5.48,0.74,8.21c0.2,1.8,0.15,3.69,2.17,4.31
			c1.88,0.58,4.04,0.59,5.99,0.62c1.88,0.03,3.89,0.02,5.69-0.57c3.34-1.08,3.26-4.79,3.3-7.71c0.03-2.11,0.05-4.26-0.5-6.32
			c-0.23-0.84-0.54-1.67-0.92-2.46c-0.38-0.81-0.98-1.58-1.25-2.42c-0.66-2.06-0.87-4.28-0.94-6.43c-0.04-1.23-0.02-2.47,0.06-3.7
			c0.01-0.24-0.03-0.76,0.07-0.97c0.11-0.23,0.47-0.45,0.66-0.66c0.31-0.36,0.54-0.78,0.72-1.22c0.68-1.64,0.71-3.52,0.94-5.25
			c0.13-0.96,0.19-2.23,0.63-3.11c0.06-0.12,0.05-0.25,0.15-0.32c0.21-0.13,0.92,0.01,1.17,0.01c0.49,0,0.99,0.01,1.48,0.01
			c5.36-0.02,10.95,0.23,16.25-0.8c2.21-0.43,4.29-1.24,6.36-2.1c-0.37,3.03-2.17,5.66-2.63,8.67c-0.11,0.71,0.05,1.37-0.41,1.91
			c-0.56,0.66-1.07,1.33-1.47,2.11c-1.11,2.15-1.05,4.58-0.89,6.93c0.14,2.1,0.35,4.19,0.42,6.29c0.06,1.85-0.14,3.64-0.37,5.47
			c-0.21,1.67-0.23,3.33-0.14,5.01c0.09,1.65,0.07,3.39,0.38,5.02c0.46,2.38,3.83,2.48,5.72,2.61c2.33,0.16,5.49,0.32,7.47-1.17
			c1.77-1.32,1.86-3.96,1.97-5.95c0.09-1.68,0.09-3.39-0.1-5.06c-0.2-1.77-0.79-3.44-1.22-5.17c-0.25-1.02-0.6-2.07-0.75-3.11
			c-0.13-0.91-0.05-1.88-0.1-2.79c-0.06-1.13-0.14-2.27-0.44-3.36c-0.17-0.61-0.42-1.19-0.65-1.78c1.92-0.62,2.53-3.2,3.17-4.84
			c0.83-2.11,1.93-4.03,3.27-5.86c3.19-4.37,7.06-8.2,9.68-12.98c2.58-4.71,3.81-10.06,3.86-15.41c0.01-0.67-0.09-1.36-0.04-2.02
			c0.03-0.47,0.02-0.3,0.34-0.56c0.17-0.14,0.33-0.25,0.46-0.44c0.31-0.44,0.37-1.04,0.43-1.57c0.21-2.09-0.07-4.29-0.44-6.34
			c-0.79-4.37-2.92-7.97-6.4-10.75c-0.5-0.4-1.01-0.77-1.52-1.14c1.74-0.47,3.57-1.4,4.4-3.09c0.41-0.82,0.56-1.75,0.64-2.66
			c0.2-2.39,0.02-4.82,0.01-7.21c-0.01-2.37,0.13-4.75,0.48-7.09c0.35-2.34,1.1-4.49,1.87-6.72c1.27-3.65,1.93-7.76,1.55-11.63
			c-0.35-3.56-2.17-6.81-4.69-9.31c-0.28-0.27-0.56-0.54-0.86-0.79c0.8-0.21,1.69-0.38,2.41-0.81c0.83-0.5,1.2-1.43,1.49-2.31
			c0.69-2.15,0.86-4.54,0.7-6.79c-0.05-0.62-0.06-1.85-0.59-2.29c-0.71-0.58-2.55-0.38-3.4-0.38c-1.78,0-3.69,0.12-4.48,1.98
			c-0.45,1.05-0.62,2.19-1.08,3.23c-0.5,1.13-1.29,1.56-2.42,1.89c0.66-4.18,2.12-8.34,2.3-12.59c0.06-1.57-0.32-2.99-0.62-4.52
			c-0.39-2.02-0.44-4.09-0.81-6.12c-0.17-0.91-0.53-1.85-0.5-2.76c0.02-0.6,0.05-1.18,0.02-1.78c-0.11-1.89-0.51-3.87-1.27-5.62
			c-1.19-2.72-4.27-4.85-6.82-6.1c-2.9-1.41-6.07-0.87-9.13-1.58c-2.69-0.63-5.08-1.42-7.78-0.41c-3.67,1.37-7,4.38-9.26,7.53
			c-2.16,2.99-2.61,6.33-3.05,9.92c-0.25,2.05-0.51,4.09-1,6.1c-0.52,2.13-1.39,4.1-2.26,6.1c-0.76,1.76-1.31,3.5-1.78,5.35
			c-0.1,0.39,0.01,0.34-0.34,0.45c-0.25,0.08-0.66,0.02-0.93,0.04c-0.6,0.04-1.2,0.11-1.8,0.19c-0.89,0.12-1.81,0.22-2.68,0.45
			C867.44,101.18,866.69,101.35,866.84,101.92z"/>
	</g>
	<g id="POLYLINE_948_">
		<path class="st40" d="M717.88,101.91c-5.88,1.29-9.8,5.68-12.93,10.56c-3.63,5.66-5.85,11.8-7.39,18.32
			c-1.56,6.6-2.42,13.29-3.53,19.98c-1.09,6.57-3.8,12.53-6.26,18.67c-1.17,2.93-2.19,5.91-2.96,8.97
			c-0.41,1.61-0.76,3.24-1.07,4.87c-0.22,1.15-0.52,2.37-0.48,3.56c0.01,0.35,0.04,1.02,0.55,0.93c-0.12,0.02-0.4,2.5-0.44,2.81
			c-0.11,0.89-0.18,1.78-0.18,2.68c-0.01,1.85,0.22,3.69,0.56,5.5c0.65,3.48,1.73,6.92,3.33,10.09c3.14,6.22,9.1,11.36,16.39,11.31
			c3.4-0.02,6.7-1.21,9.62-2.92c-1.37,1.25-2.71,2.54-4.01,3.86c-0.6,0.61-1.19,1.24-1.76,1.88c-0.24,0.27-0.53,0.72-0.82,0.85
			c-0.21,0.09-0.47,0.01-0.7,0.14c-0.74,0.41-1.18,1.56-1.48,2.3c-0.63,1.53-1.07,3.18-1.28,4.82c-0.12,0.97-0.16,1.99,0.04,2.95
			c0.21,1.01,0.74,1.67,1.25,2.53c1.34,2.25,1.68,5.19,2.07,7.73c0.27,1.75,0.46,3.51,0.52,5.28c0.01,0.18-0.07,1.05,0.03,1.16
			c0.13,0.14,1.17,0,1.36,0c1.16,0,2.31,0,3.47,0c-0.12-1.78,0.03-3.57,0.12-5.35c0.06-1.27-0.21-3.12,0.41-4.3
			c0.66-1.25,2.17-0.49,2.89,0.28c0.77,0.83,1.29,1.89,1.82,2.87c1.07,1.97,2.23,4.19,4.22,5.38c1.84,1.11,4.22,1.05,6.29,1.12
			c3.9,0.12,7.81,0.08,11.7-0.11c3.02-0.14,6.53-0.1,9.39-1.22c1.25-0.49,1.55-1.42,1.8-2.64c0.19-0.95,0.34-2.08-0.62-2.66
			c-0.99-0.6-2.42-0.56-3.53-0.66c-1.78-0.16-3.55-0.31-5.25-0.87c-7.44-2.47-9.84-10.07-13.01-16.43c-0.22-0.44-0.43-0.98-1-0.99
			c0.15,0,1.05-1.78,1.2-2c0.23-0.32,0.46-0.64,0.72-0.94c0.73-0.88,1.58-1.64,2.48-2.33c2.2-1.7,4.64-3.07,7.04-4.46
			c5.68-3.3,11.45-6.47,17.02-9.96c5.2-3.26,10.19-6.82,14.8-10.88c4.06-3.57,8.23-7.5,10.95-12.24c1.71-2.97,3.68-7.1,1.52-10.33
			c-0.28-0.42-0.6-0.81-0.92-1.2c0.89-0.28,1.93-0.58,2.87-0.52c1.45,0.09,2.96,0.47,4.4,0.69c1.62,0.25,3.24,0.47,4.84,0.75
			c0.87,0.15,1.96,0.28,2.69,0.83c0.8,0.59,0.97,1.73,1.3,2.6c0.33,0.87,0.79,1.69,1.29,2.47c1.47,2.29,3.25,4.41,5.13,6.36
			c1.29,1.35,2.73,2.58,3.53,4.3c0.86,1.84,1.03,3.79,1.06,5.79c0.02,0.9-0.01,1.94,0.71,2.59c0.72,0.65,1.84,0.99,2.71,1.34
			c1.07,0.44,3.44,1.54,4.44,0.4c1.08-1.25,0.52-4.07,0.4-5.49c-0.23-2.54-0.6-5.13-1.4-7.56c-0.78-2.35-2.08-4.52-3.36-6.63
			c-1.39-2.31-3.04-4.42-4.81-6.45c-3.02-3.46-6.05-7.31-10.58-8.76c-2.82-0.9-5.73-1.5-8.58-2.29c-2.85-0.79-5.69-1.62-8.47-2.63
			c-0.49-0.18-1.74-0.41-2.08-0.8c-0.27-0.31-0.02-1.5,0-1.99c0.06-1.49,0.1-2.97,0.11-4.46c0.01-3.05-0.05-6.11-0.24-9.15
			c-0.17-2.74-0.55-5.44-1.14-8.12c-0.61-2.79-1.3-5.56-1.59-8.41c-0.26-2.61-0.2-5.33-0.82-7.89c-0.18-0.73-0.43-1.44-0.75-2.12
			c-0.46-1.02,0.01-2.25,0.06-3.37c0.09-2.3-0.7-4.43-1.4-6.59c-0.93-2.85-1.27-5.63-1.53-8.61c-0.24-2.71-0.71-5.37-1.35-8.01
			c-0.35-1.44-0.74-2.88-1.16-4.3c-0.23-0.77-0.43-1.33-0.35-2.13c0.07-0.66,0.11-1.32,0.12-1.98c0.01-0.5-0.1-1.06-0.03-1.55
			c0.06-0.47,0.31-0.97,0.42-1.43c0.22-0.89,0.34-1.81,0.39-2.72c0.09-1.81-0.03-3.77-0.67-5.48c-0.65-1.72-2.12-2.03-3.39-3.12
			c-1.25-1.07-2.05-2.59-3.41-3.55c-1.69-1.18-3.92-1.13-5.8-0.43c-1.78,0.66-3.3,1.98-5.19,2.32c-2.5,0.45-4.86,0.56-7.23,1.62
			c-3.5,1.57-5.28,4.7-6.88,8.02c-1.31,2.72-2.53,5.49-3.7,8.28c-1.09,2.6-2.03,5.3-3.32,7.81c-0.77,1.49-1.7,2.88-2.98,3.97
			c-1.68,1.42-3.77,2.25-5.42,3.69C719.41,99.16,718.63,100.54,717.88,101.91z"/>
	</g>
</g>
</svg>
